
<svg xmlns="http://www.w3.org/2000/svg" version="1.1" xmlns:xlink="http://www.w3.org/1999/xlink" preserveAspectRatio="none" x="0px" y="0px" width="460px" height="320px" viewBox="0 0 460 320">
<defs>
<linearGradient id="Gradient_1" gradientUnits="userSpaceOnUse" x1="214.8875" y1="308.2625" x2="99.1125" y2="108.13749999999999" spreadMethod="pad">
<stop  offset="0%" stop-color="#000000" stop-opacity="0"/>

<stop  offset="100%" stop-color="#000000" stop-opacity="0.4196078431372549"/>
</linearGradient>

<linearGradient id="Gradient_2" gradientUnits="userSpaceOnUse" x1="-12.475000000000009" y1="150.7875" x2="132.075" y2="112.11249999999998" spreadMethod="pad">
<stop  offset="0%" stop-color="#FFFFFF" stop-opacity="0.10196078431372549"/>

<stop  offset="100%" stop-color="#FFFFFF" stop-opacity="0"/>
</linearGradient>

<linearGradient id="Gradient_3" gradientUnits="userSpaceOnUse" x1="41.925" y1="47.55" x2="204.875" y2="141.85000000000002" spreadMethod="pad">
<stop  offset="0%" stop-color="#00CCFE"/>

<stop  offset="24.705882352941178%" stop-color="#00CCFE"/>

<stop  offset="49.80392156862745%" stop-color="#03809E"/>

<stop  offset="91.76470588235294%" stop-color="#00CCFE"/>

<stop  offset="100%" stop-color="#00CCFE"/>
</linearGradient>

<g id="Layer6_0_FILL">
<path fill="url(#Gradient_1)" stroke="none" d="
M 203.95 136.9
Q 204.9 140.3 203.15 143.35 203.05 143.4 203.05 143.55 201.3 146.3 198 147.25 195.1 148.05 192.4 146.85
L 128.3 182.55
Q 129.1 185.8 127.4 188.6 125.7 191.65 122.35 192.6 121.95 192.75 121.45 192.8
L 120.8 192.8 120.8 192.95
Q 118.3 193.15 115.95 191.8 112.9 190.1 112.1 186.7 111.15 183.35 112.75 180.45
L 51.2 145.1
Q 50.8341796875 145.74296875 50.35 146.25
L 223.8 319.7 460 319.7 200.1 59.8 200.3 132.05
Q 203.15 133.75 203.95 136.9 Z"/>
</g>

<g id="Layer4_0_FILL">
<path fill="#000000" fill-opacity="0.03137254901960784" stroke="none" d="
M 205.95 54.2
Q 205.95 52.6 205.15 51.2 204.35 49.8 202.95 49
L 126.35 4.8
Q 124.95 4 123.35 4 121.75 4 120.35 4.8
L 43.8 49.05
Q 42.4 49.85 41.6 51.3 40.8 52.65 40.8 54.25
L 40.8 142.7
Q 40.8 144.3 41.6 145.7 42.4 147.1 43.8 147.9
L 120.35 192.1
Q 121.75 192.9 123.35 192.9 124.95 192.9 126.35 192.1
L 202.95 147.8
Q 204.35 147 205.15 145.6 205.95 144.2 205.95 142.6
L 205.95 54.2
M 204.3 51.7
Q 204.95 52.85 204.95 54.2
L 204.95 142.6
Q 204.95 143.9 204.3 145.1 203.6 146.25 202.45 146.95
L 125.85 191.25
Q 124.7 191.9 123.35 191.9 122 191.9 120.85 191.25
L 44.3 147.05
Q 43.15 146.35 42.5 145.2 41.8 144 41.8 142.7
L 41.8 54.25
Q 41.8 52.95 42.5 51.8 43.15 50.6 44.3 49.95
L 120.85 5.7
Q 122 5 123.35 5 124.7 5 125.85 5.7
L 202.45 49.9
Q 203.6 50.55 204.3 51.7 Z"/>

<path fill="#000000" fill-opacity="0.06274509803921569" stroke="none" d="
M 204.95 54.2
Q 204.95 52.85 204.3 51.7 203.6 50.55 202.45 49.9
L 125.85 5.7
Q 124.7 5 123.35 5 122 5 120.85 5.7
L 44.3 49.95
Q 43.15 50.6 42.5 51.8 41.8 52.95 41.8 54.25
L 41.8 142.7
Q 41.8 144 42.5 145.2 43.15 146.35 44.3 147.05
L 120.85 191.25
Q 122 191.9 123.35 191.9 124.7 191.9 125.85 191.25
L 202.45 146.95
Q 203.6 146.25 204.3 145.1 204.95 143.9 204.95 142.6
L 204.95 54.2
M 203.4 52.2
Q 203.95 53.15 203.95 54.2
L 203.95 142.6
Q 203.95 143.65 203.45 144.6 202.9 145.55 201.95 146.1
L 125.35 190.4
Q 124.4 190.9 123.35 190.9 122.3 190.9 121.35 190.4
L 44.8 146.2
Q 43.85 145.65 43.35 144.7 42.8 143.75 42.8 142.7
L 42.8 54.25
Q 42.8 53.2 43.35 52.25 43.85 51.3 44.8 50.8
L 121.35 6.55
Q 122.3 6 123.35 6 124.4 6 125.35 6.55
L 201.95 50.75
Q 202.85 51.25 203.4 52.2 Z"/>

<path fill="#000000" fill-opacity="0.09803921568627451" stroke="none" d="
M 203.95 54.2
Q 203.95 53.15 203.4 52.2 202.85 51.25 201.95 50.75
L 125.35 6.55
Q 124.4 6 123.35 6 122.3 6 121.35 6.55
L 44.8 50.8
Q 43.85 51.3 43.35 52.25 42.8 53.2 42.8 54.25
L 42.8 142.7
Q 42.8 143.75 43.35 144.7 43.85 145.65 44.8 146.2
L 121.35 190.4
Q 122.3 190.9 123.35 190.9 124.4 190.9 125.35 190.4
L 201.95 146.1
Q 202.9 145.55 203.45 144.6 203.95 143.65 203.95 142.6
L 203.95 54.2
M 202.55 52.7
Q 202.95 53.4 202.95 54.2
L 202.95 142.6
Q 202.95 143.4 202.55 144.1 202.15 144.8 201.45 145.2
L 124.85 189.5
Q 124.15 189.9 123.35 189.9 122.55 189.9 121.85 189.5
L 45.3 145.3
Q 44.6 144.9 44.2 144.2 43.8 143.5 43.8 142.7
L 43.8 54.25
Q 43.8 53.45 44.2 52.75 44.6 52.05 45.3 51.65
L 121.85 7.4
Q 122.55 7 123.35 7 124.15 7 124.85 7.4
L 201.45 51.6
Q 202.15 52 202.55 52.7 Z"/>

<path fill="#000000" fill-opacity="0.12941176470588237" stroke="none" d="
M 202.95 54.2
Q 202.95 53.4 202.55 52.7 202.15 52 201.45 51.6
L 124.85 7.4
Q 124.15 7 123.35 7 122.55 7 121.85 7.4
L 45.3 51.65
Q 44.6 52.05 44.2 52.75 43.8 53.45 43.8 54.25
L 43.8 142.7
Q 43.8 143.5 44.2 144.2 44.6 144.9 45.3 145.3
L 121.85 189.5
Q 122.55 189.9 123.35 189.9 124.15 189.9 124.85 189.5
L 201.45 145.2
Q 202.15 144.8 202.55 144.1 202.95 143.4 202.95 142.6
L 202.95 54.2
M 201.7 53.2
Q 201.95 53.65 201.95 54.2
L 201.95 142.6
Q 201.95 143.15 201.7 143.6 201.4 144.05 200.95 144.35
L 124.35 188.65
Q 123.9 188.9 123.35 188.9 122.8 188.9 122.35 188.65
L 45.8 144.45
Q 45.35 144.15 45.1 143.7 44.8 143.25 44.8 142.7
L 44.8 54.25
Q 44.8 53.7 45.1 53.25 45.146484375 53.1662109375 45.2 53.1
L 45.2 52.25 121.75 8 122.3 8.3 122.35 8.3
Q 122.8 8 123.35 8 123.9 8 124.35 8.3
L 200.95 52.5
Q 201.4 52.75 201.7 53.2 Z"/>

<path fill="url(#Gradient_2)" stroke="none" d="
M 198.35 140.6
L 198.35 52.2 123.5 9 122.3 8.3 121.75 8 45.2 52.25 45.2 53.1 45.2 140.7 45.8 141.05 121.75 184.9 198.35 140.6 Z"/>

<path fill="#000000" fill-opacity="0.2" stroke="none" d="
M 200.95 54.2
Q 200.95 53.95 200.85 53.7 200.7 53.45 200.45 53.35
L 123.85 9.15
Q 123.680078125 9.048046875 123.5 9
L 198.35 52.2 198.35 140.6 121.75 184.9 45.8 141.05 45.8 142.7
Q 45.8 142.95 45.95 143.2 46.05 143.45 46.3 143.6
L 122.85 187.8
Q 123.1 187.9 123.35 187.9 123.6 187.9 123.85 187.8
L 200.45 143.5
Q 200.7 143.35 200.85 143.1 200.95 142.85 200.95 142.6
L 200.95 54.2 Z"/>

<path fill="#000000" fill-opacity="0.16470588235294117" stroke="none" d="
M 200.85 53.7
Q 200.95 53.95 200.95 54.2
L 200.95 142.6
Q 200.95 142.85 200.85 143.1 200.7 143.35 200.45 143.5
L 123.85 187.8
Q 123.6 187.9 123.35 187.9 123.1 187.9 122.85 187.8
L 46.3 143.6
Q 46.05 143.45 45.95 143.2 45.8 142.95 45.8 142.7
L 45.8 141.05 45.2 140.7 45.2 53.1
Q 45.146484375 53.1662109375 45.1 53.25 44.8 53.7 44.8 54.25
L 44.8 142.7
Q 44.8 143.25 45.1 143.7 45.35 144.15 45.8 144.45
L 122.35 188.65
Q 122.8 188.9 123.35 188.9 123.9 188.9 124.35 188.65
L 200.95 144.35
Q 201.4 144.05 201.7 143.6 201.95 143.15 201.95 142.6
L 201.95 54.2
Q 201.95 53.65 201.7 53.2 201.4 52.75 200.95 52.5
L 124.35 8.3
Q 123.9 8 123.35 8 122.8 8 122.35 8.3
L 122.3 8.3 123.5 9
Q 123.680078125 9.048046875 123.85 9.15
L 200.45 53.35
Q 200.7 53.45 200.85 53.7 Z"/>
</g>

<g id="Layer3_0_FILL">
<path fill="#00CCFF" stroke="none" d="
M 111.55 9.85
L 112 10.6
Q 111.9 10.1 111.8 9.7
L 111.55 9.85 Z"/>

<path fill="url(#Gradient_3)" stroke="none" d="
M 188.55 134.95
Q 189.65 133.05 191.45 132
L 55 53.65
Q 55 53.05 54.9 52.55
L 117.3 16.3
Q 116.55 16.05 115.85 15.65 112.9 13.95 112 10.6
L 111.55 9.85 49.85 45.65
Q 47.25 44.45 44.4 45.2 41.2 46.1 39.45 48.9
L 38.45 51
Q 37.8 53.15 38.45 55.5 39.35 58.9 42.35 60.65 43.6 61.35 44.85 61.65
L 45.55 61.75
Q 47.1 61.95 48.7 61.45 49.65 61.2 50.55 60.8
L 179.6 134.95 126.85 165.6 126.85 174.45 187.45 140.1
Q 187.15 137.4 188.55 134.95 Z"/>
</g>

<g id="Layer2_0_FILL">
<path fill="#FFFFFF" stroke="none" d="
M 203.55 48.1
L 203.6 48.05
Q 202.5 46 200.35 44.8 197.35 43.1 194 44 193.2 44.2 192.55 44.5
L 128.5 7.75
Q 128.35 6.95 128.15 6.1 127.25 2.8 124.25 1.05 122.8 0.25 121.4 0.05
L 120.45 0.05 120.45 0
Q 119.15 -0.1 117.9 0.25 114.5 1.15 112.75 4.15 111.3 6.75 111.8 9.7 111.9 10.1 112 10.6 112.9 13.95 115.85 15.65 116.290234375 15.9015625 116.75 16.1
L 116.8 176.8
Q 114.6 177.7 113.25 179.65
L 112.8 180.35 112.75 180.45
Q 111.15 183.35 112.1 186.7 112.9 190.1 115.95 191.8 118.3 193.15 120.8 192.95
L 120.8 192.8 121.45 192.8
Q 121.95 192.75 122.35 192.6 125.7 191.65 127.4 188.6 129.1 185.8 128.3 182.55
L 192.4 146.85
Q 195.1 148.05 198 147.25 201.3 146.3 203.05 143.55 203.05 143.4 203.15 143.35 204.9 140.3 203.95 136.9 203.15 133.75 200.3 132.05
L 200.1 59.55
Q 202.25 58.45 203.45 56.25 205.2 53.25 204.3 49.85 204.1 49.2 203.85 48.65 203.8 48.55 203.8 48.5
L 203.55 48.1
M 189.35 57.1
Q 190.25 58.3 191.65 59.15
L 191.85 131.7
Q 191.65 131.85 191.45 132 189.65 133.05 188.55 134.95 187.15 137.4 187.45 140.1
L 126.85 174.45 126.85 16.6 187.8 51.55
Q 187.75 52.9 188.15 54.3 188.4 55.5 189.05 56.55
L 189.35 57.1 Z"/>
</g>

<g id="Layer1_0_FILL">
<path fill="#FFFFFF" stroke="none" d="
M 223.65 270
Q 226.25 267.5 226.25 263.75 226.25 260.05 223.7 257.5 221.1 254.95 217.35 254.95 213.65 254.95 211.05 257.45 208.5 260 208.5 263.6 208.5 267.45 211 269.95 213.55 272.55 217.3 272.55 221.05 272.55 223.65 270
M 220.95 259.9
Q 222.3 261.35 222.3 263.75 222.3 266.2 220.95 267.65 219.6 269.1 217.35 269.1 215.1 269.1 213.75 267.6 212.4 266.15 212.4 263.7 212.4 261.35 213.8 259.9 215.15 258.4 217.35 258.4 219.6 258.4 220.95 259.9
M 200.6 255.4
L 200.6 272.05 204.4 272.05 204.4 255.4 200.6 255.4
M 184.95 272.05
L 184.95 261.75
Q 184.95 254.95 179.35 254.95 176.25 254.95 174.45 257.4 172.8 254.95 169.95 254.95 168.7 254.95 167.85 255.35 167.1 255.8 165.95 256.95
L 165.95 255.4 162.15 255.4 162.15 272.05 165.95 272.05 165.95 263.45
Q 165.95 260.85 166.7 259.65 167.45 258.4 169.1 258.4 171.65 258.4 171.65 262.85
L 171.65 272.05 175.5 272.05 175.5 263.45
Q 175.5 260.8 176.25 259.6 176.95 258.4 178.55 258.4 179.9 258.4 180.5 259.4 181.1 260.4 181.1 262.8
L 181.1 272.05 184.95 272.05
M 190.35 270.15
Q 190.35 271.15 191.05 271.85 191.75 272.55 192.75 272.55 193.75 272.55 194.45 271.85 195.15 271.15 195.15 270.15 195.15 269.2 194.45 268.5 193.7 267.8 192.75 267.8 191.8 267.8 191.1 268.5 190.35 269.2 190.35 270.15
M 204.25 246.75
Q 203.55 246 202.5 246 201.45 246 200.75 246.75 200 247.45 200 248.5 200 249.55 200.75 250.3 201.45 251 202.5 251 203.55 251 204.25 250.3 205 249.55 205 248.5 205 247.45 204.25 246.75
M 157.3 255.4
L 153.45 255.4 153.45 257.35
Q 151.15 254.95 148.25 254.95 144.85 254.95 142.65 257.45 140.4 259.95 140.4 263.7 140.4 267.5 142.65 270.05 144.9 272.55 148.35 272.55 151.05 272.55 153.45 270.3
L 153.45 272.05 157.3 272.05 157.3 255.4
M 144.3 263.7
Q 144.3 261.45 145.65 259.9 146.95 258.4 148.95 258.4 151.05 258.4 152.35 259.9 153.7 261.4 153.7 263.75 153.7 266.1 152.35 267.6 151.05 269.1 148.9 269.1 146.9 269.1 145.6 267.55 144.3 266.05 144.3 263.7
M 129.05 254.95
Q 125.45 254.95 123.25 257.35 121.05 259.8 121.05 263.75 121.05 267.75 123.3 270.15 125.55 272.55 129.3 272.55 130.6 272.55 131.7 272.25 132.8 272 133.75 271.4 134.7 270.8 135.55 269.9 136.4 268.95 137.15 267.7
L 133.9 265.9
Q 132.7 267.75 131.8 268.4 130.85 269.1 129.4 269.1 127.55 269.1 126.4 267.9 125.2 266.7 125.05 264.65
L 137 264.65 137 263.75
Q 137 259.6 134.9 257.3 132.75 254.95 129.05 254.95
M 127.85 258.65
Q 128.45 258.4 129.15 258.4 132.25 258.4 133.05 261.5
L 125.3 261.5
Q 125.5 260.75 125.85 260.2 126.2 259.65 126.75 259.25 127.25 258.85 127.85 258.65
M 112.6 256.9
L 112.6 255.4 108.8 255.4 108.8 272.05 112.6 272.05 112.6 263.4
Q 112.6 258.65 115.75 258.65 116.8 258.65 117.9 259.45
L 119.65 255.95
Q 118 254.95 116.5 254.95 115.35 254.95 114.5 255.35 113.7 255.8 112.6 256.9
M 103.2 255.4
L 103.2 249.3 99.35 249.3 99.35 255.4 97.7 255.4 97.7 259 99.35 259 99.35 272.05 103.2 272.05 103.2 259 106.2 259 106.2 255.4 103.2 255.4
M 88.75 258.75
Q 89.15 258.4 89.65 258.4 90.75 258.4 91.5 259.95
L 94.7 258.25
Q 93.15 254.95 89.95 254.95 87.8 254.95 86.25 256.35 84.75 257.8 84.75 259.95 84.75 261.6 85.65 262.65 86.35 263.45 88 264.25
L 90.35 265.4
Q 91.85 266.3 91.85 267.3 91.85 269.1 89.9 269.1 88.9 269.1 88.2 268.45 87.85 268.1 87.2 266.9
L 83.9 268.45
Q 85.65 272.55 89.85 272.55 92.25 272.55 94 271 95.8 269.35 95.8 266.95 95.8 265.1 94.7 264 93.65 262.85 90.6 261.55 88.4 260.6 88.4 259.65 88.4 259.1 88.75 258.75
M 78.75 257.45
Q 76.5 254.95 73.1 254.95 70.2 254.95 67.9 257.2
L 67.9 255.4 64.1 255.4 64.1 281.1 67.9 281.1 67.9 270.2
Q 70.25 272.55 73.15 272.55 76.55 272.55 78.75 270.05 81 267.55 81 263.8 81 260 78.75 257.45
M 67.7 263.75
Q 67.7 261.35 69 259.9 70.35 258.4 72.45 258.4 74.45 258.4 75.75 259.95 77.05 261.45 77.05 263.85 77.05 266.1 75.75 267.6 74.45 269.1 72.45 269.1 70.3 269.1 69 267.6 67.7 266.1 67.7 263.75
M 57.8 257.3
Q 55.65 254.95 51.95 254.95 48.35 254.95 46.15 257.35 43.95 259.8 43.95 263.75 43.95 267.75 46.2 270.15 48.45 272.55 52.2 272.55 53.5 272.55 54.6 272.25 55.7 272 56.65 271.4 57.6 270.8 58.45 269.9 59.3 268.95 60.05 267.7
L 56.8 265.9
Q 55.6 267.75 54.7 268.4 53.75 269.1 52.3 269.1 50.45 269.1 49.3 267.9 48.1 266.7 47.95 264.65
L 59.9 264.65 59.9 263.75
Q 59.9 259.6 57.8 257.3
M 50.75 258.65
Q 51.35 258.4 52.05 258.4 55.15 258.4 55.95 261.5
L 48.2 261.5
Q 48.4 260.75 48.75 260.2 49.1 259.65 49.65 259.25 50.15 258.85 50.75 258.65
M 38.45 257.3
Q 36.3 254.95 32.6 254.95 29 254.95 26.8 257.35 24.6 259.8 24.6 263.75 24.6 267.75 26.85 270.15 29.1 272.55 32.85 272.55 34.15 272.55 35.25 272.25 36.35 272 37.3 271.4 38.25 270.8 39.1 269.9 39.95 268.95 40.7 267.7
L 37.45 265.9
Q 36.25 267.75 35.35 268.4 34.4 269.1 32.95 269.1 31.1 269.1 29.95 267.9 28.75 266.7 28.6 264.65
L 40.55 264.65 40.55 263.75
Q 40.55 259.6 38.45 257.3
M 31.4 258.65
Q 32 258.4 32.7 258.4 35.8 258.4 36.6 261.5
L 28.85 261.5
Q 29.05 260.75 29.4 260.2 29.75 259.65 30.3 259.25 30.8 258.85 31.4 258.65
M 20.55 243.2
L 16.7 243.2 16.7 257.35
Q 14.4 254.95 11.45 254.95 8.1 254.95 5.9 257.45 3.65 259.95 3.65 263.7 3.65 267.5 5.9 270.05 8.15 272.55 11.55 272.55 14.4 272.55 16.7 270.3
L 16.7 272.05 20.55 272.05 20.55 243.2
M 7.55 263.7
Q 7.55 261.45 8.9 259.9 10.2 258.4 12.2 258.4 14.3 258.4 15.6 259.9 16.95 261.4 16.95 263.75 16.95 266.1 15.6 267.6 14.3 269.1 12.15 269.1 10.15 269.1 8.85 267.55 7.55 266.05 7.55 263.7 Z"/>
</g>

<g id="Layer0_0_FILL">
<path fill="#FFFFFF" fill-opacity="0.4" stroke="none" d="
M 188.5 55.4
L 191.55 53.5 126.85 16.6 126.85 93.35 188.5 55.4 Z"/>

<path fill="#FFFFFF" fill-opacity="0.30196078431372547" stroke="none" d="
M 191.6 53.55
L 188.5 55.4 126.85 93.35 126.85 174.45 187.45 140.1
Q 187.40703125 139.71328125 187.4 139.3
L 187.45 139.3
Q 187.41953125 139.026171875 187.4 138.75 187.5029296875 136.782421875 188.55 134.95 189.65 133.05 191.45 132 191.65 131.85 191.85 131.7
L 191.6 53.55 Z"/>
</g>
</defs>

<g transform="matrix( 1, 0, 0, 1, 0,0) ">
<use xlink:href="#Layer6_0_FILL"/>
</g>

<g transform="matrix( 1, 0, 0, 1, 0,0) ">
<use xlink:href="#Layer4_0_FILL"/>
</g>

<g transform="matrix( 1, 0, 0, 1, 0,0) ">
<use xlink:href="#Layer3_0_FILL"/>
</g>

<g transform="matrix( 1, 0, 0, 1, 0,0) ">
<use xlink:href="#Layer2_0_FILL"/>
</g>

<g transform="matrix( 1, 0, 0, 1, 0,0) ">
<use xlink:href="#Layer1_0_FILL"/>
</g>

<g transform="matrix( 1, 0, 0, 1, 0,0) ">
<use xlink:href="#Layer0_0_FILL"/>
</g>
</svg>
