
<svg xmlns="http://www.w3.org/2000/svg" version="1.1" xmlns:xlink="http://www.w3.org/1999/xlink" preserveAspectRatio="none" x="0px" y="0px" width="306px" height="372px" viewBox="0 0 306 372">
<defs>
<linearGradient id="Gradient_1" gradientUnits="userSpaceOnUse" x1="164.85" y1="-0.15000000000000568" x2="164.85" y2="371.85" spreadMethod="pad">
<stop  offset="0%" stop-color="#0075A1"/>

<stop  offset="100%" stop-color="#313A34"/>
</linearGradient>

<linearGradient id="Gradient_2" gradientUnits="userSpaceOnUse" x1="165" y1="-0.05000000000001137" x2="165" y2="373.25" spreadMethod="pad">
<stop  offset="0%" stop-color="#085774" stop-opacity="0.8470588235294118"/>

<stop  offset="100%" stop-color="#2D3731" stop-opacity="0.9490196078431372"/>
</linearGradient>

<g id="Layer2_0_FILL">
<path fill="url(#Gradient_1)" stroke="none" d="
M 329.9 -0.15
L -0.1 -0.15 -0.1 371.85 329.9 371.85 329.9 -0.15 Z"/>
</g>

<g id="hex_grid_rept_0_Layer1_0_FILL">
<path fill="#000000" fill-opacity="0.8" stroke="none" d="
M 401.2 235.75
Q 401.2 235.6 401.15 235.5 401.05 235.4 400.95 235.35
L 303.15 178.9 303.15 65.9
Q 303.15 65.7 303 65.55 302.85 65.4 302.65 65.4 302.45 65.4 302.3 65.55 302.15 65.7 302.15 65.9
L 302.15 178.9 204.6 235.2 203.7 234.65 203.65 234.65
Q 203.45 234.5 203.3 234.4
L 203.3 234.45 107 178.9 107 65.9
Q 107 65.7 106.9 65.6
L 106.85 65.55
Q 106.8 65.5 106.75 65.5
L 106.7 65.45 72.15 45.5 70.2 45.5 106 66.2 106 178.9 8.15 235.35
Q 8.05 235.4 8 235.5 7.9 235.6 7.9 235.75
L 7.9 349
Q 7.9 349.15 8 349.25 8.05 349.35 8.15 349.45
L 106 405.9 106 518.6 8.15 575.05
Q 8.05 575.1 8 575.2 7.9 575.3 7.9 575.45
L 7.9 688.7
Q 7.9 688.85 8 688.95 8.05 689.05 8.15 689.15
L 46.5 711.25 48.5 711.25 8.9 688.45 8.9 575.75 106.5 519.45 202.8 575 202.85 575
Q 202.95 575.05 203.1 575.15 203.15 575.2 203.2 575.25
L 204.05 575.75 204.05 688.45 164.5 711.25 166.5 711.25 204.55 689.3 242.65 711.25 244.65 711.25 205.05 688.45 205.05 575.75 302.65 519.45 302.45 519.3
Q 302.55 519.35 302.65 519.35 302.75 519.35 302.9 519.3
L 302.65 519.45 400.2 575.75 400.2 688.45 360.65 711.25 362.65 711.25 400.95 689.15
Q 401.05 689.05 401.15 688.95 401.2 688.85 401.2 688.7
L 401.2 575.45
Q 401.2 575.3 401.15 575.2 401.05 575.1 400.95 575.05
L 303.15 518.6 303.15 405.9 400.95 349.45
Q 401.05 349.35 401.15 349.25 401.2 349.15 401.2 349
L 401.2 235.75
M 400.2 236.05
L 400.2 348.75 302.65 405.05 206.5 349.55
Q 206.45 349.5 206.4 349.5
L 206.4 349.45 205.05 348.7 205.05 236.05 302.65 179.75 400.2 236.05
M 106.75 179.6
L 106.5 179.75 202.8 235.3 202.85 235.3
Q 202.95 235.35 203.1 235.45 203.15 235.5 203.2 235.55
L 204.05 236.05 204.05 348.75 203.05 349.35 202.85 349.45 202.8 349.5
Q 202.75 349.5 202.75 349.55
L 106.5 405.05 8.9 348.75 8.9 236.05 106.5 179.75 106.3 179.6
Q 106.4 179.65 106.5 179.65 106.6 179.65 106.75 179.6
M 204.6 574.9
L 203.7 574.35 203.65 574.35
Q 203.45 574.2 203.3 574.1
L 203.3 574.15 107 518.6 107 405.9 204.6 349.65 302.15 405.9 302.15 518.6 204.6 574.9 Z"/>
</g>

<g id="hex_grid_rept_0_Layer0_0_FILL">
<path fill="#FFFFFF" fill-opacity="0.8" stroke="none" d="
M 401.95 236.35
Q 401.9115234375 236.2376953125 401.8 236.15
L 304 179.7 304 66.75
Q 303.9982421875 66.5447265625 303.85 66.4 303.7052734375 66.2517578125 303.5 66.25 303.2947265625 66.2517578125 303.15 66.4 303.0017578125 66.5447265625 303 66.75
L 303 179.7 205.45 236 204.55 235.5 204.5 235.45
Q 204.3162109375 235.3466796875 204.1 235.25
L 204.15 235.25 107.85 179.7 107.85 66.75
Q 107.8484375 66.5611328125 107.7 66.4
L 107.7 66.4
Q 107.65625 66.3580078125 107.6 66.3
L 107.55 66.3 73 46.35 71 46.35 106.85 67 106.85 179.7 9 236.15
Q 8.8884765625 236.2376953125 8.8 236.35 8.7537109375 236.466015625 8.75 236.6
L 8.75 349.85
Q 8.7537109375 349.983984375 8.8 350.1 8.8884765625 350.2123046875 9 350.25
L 106.85 406.7 106.85 519.4 9 575.85
Q 8.8884765625 575.9376953125 8.8 576.05 8.7537109375 576.166015625 8.75 576.3
L 8.75 689.55
Q 8.7537109375 689.683984375 8.8 689.8 8.8884765625 689.9123046875 9 689.95
L 47.35 712.1 49.3 712.1 9.75 689.25 9.75 576.55 107.35 520.25 203.65 575.8 203.65 575.85
Q 203.7998046875 575.911328125 203.9 576 203.976171875 576.0572265625 204.05 576.1
L 204.9 576.6 204.9 689.25 165.35 712.1 167.3 712.1 205.4 690.1 243.5 712.1 245.45 712.1 205.9 689.25 205.9 576.6 303.5 520.25 303.25 520.15
Q 303.3818359375 520.1990234375 303.5 520.2 303.6203125 520.1990234375 303.7 520.15
L 303.5 520.25 401.05 576.55 401.05 689.25 361.5 712.1 363.45 712.1 401.8 689.95
Q 401.9115234375 689.9123046875 401.95 689.8 402.04609375 689.683984375 402.05 689.55
L 402.05 576.3
Q 402.0458984375 576.166796875 401.95 576.05 401.9119140625 575.9384765625 401.8 575.85
L 304 519.4 304 406.7 401.8 350.25
Q 401.9119140625 350.2115234375 401.95 350.1 402.0458984375 349.9830078125 402.05 349.85
L 402.05 236.6
Q 402.04609375 236.466015625 401.95 236.35
M 401.05 236.85
L 401.05 349.55 303.5 405.85 207.3 350.35
Q 207.2923828125 350.349609375 207.25 350.3
L 207.2 350.3 205.9 349.55 205.9 236.9 303.5 180.55 401.05 236.85
M 107.35 180.55
L 107.1 180.45
Q 107.2318359375 180.4990234375 107.35 180.5 107.4703125 180.4990234375 107.55 180.45
L 107.35 180.55 203.65 236.1 203.65 236.15
Q 203.7998046875 236.211328125 203.9 236.3 203.976171875 236.3572265625 204.05 236.4
L 204.9 236.9 204.9 349.55 203.85 350.2 203.65 350.3 203.65 350.3
Q 203.608203125 350.349609375 203.55 350.35
L 107.35 405.85 9.75 349.55 9.75 236.85 107.35 180.55
M 204.1 574.95
L 204.15 574.95 107.85 519.4 107.85 406.7 205.45 350.45 303 406.7 303 519.4 205.45 575.7 204.55 575.2 204.5 575.15
Q 204.3162109375 575.0466796875 204.1 574.95 Z"/>
</g>

<g id="circ_hxs_0_Layer0_0_FILL">
<path fill="#CCCC66" stroke="none" d="
M 13.05 13.05
Q 14.65 11.5 14.65 9.25 14.65 7 13.05 5.45 11.5 3.85 9.25 3.85 7 3.85 5.45 5.45 3.85 7 3.85 9.25 3.85 11.5 5.45 13.05 7 14.65 9.25 14.65 11.5 14.65 13.05 13.05 Z"/>
</g>

<g id="Layer0_0_FILL">
<path fill="url(#Gradient_2)" stroke="none" d="
M 330 373.25
L 330 0 95.15 0 0 0 0 373.25 95.15 373.25 330 373.25 Z"/>
</g>
</defs>

<g transform="matrix( 1, 0, 0, 1, 0,0) ">
<use xlink:href="#Layer2_0_FILL"/>
</g>

<g transform="matrix( 0.77923583984375, 0, 0, 0.77923583984375, -6.5,-77.1) ">
<g transform="matrix( 1, 0, 0, 1, 0,0) ">
<use xlink:href="#hex_grid_rept_0_Layer1_0_FILL"/>
</g>

<g transform="matrix( 1, 0, 0, 1, 0,0) ">
<use xlink:href="#hex_grid_rept_0_Layer0_0_FILL"/>
</g>

<g transform="matrix( 1, 0, 0, 1, 196.25,341.5) ">
<g transform="matrix( 1, 0, 0, 1, 0,0) ">
<use xlink:href="#circ_hxs_0_Layer0_0_FILL"/>
</g>
</g>

<g transform="matrix( 1, 0, 0, 1, 196.25,681.2) ">
<g transform="matrix( 1, 0, 0, 1, 0,0) ">
<use xlink:href="#circ_hxs_0_Layer0_0_FILL"/>
</g>
</g>

<g transform="matrix( 1, 0, 0, 1, 196.25,567.05) ">
<g transform="matrix( 1, 0, 0, 1, 0,0) ">
<use xlink:href="#circ_hxs_0_Layer0_0_FILL"/>
</g>
</g>

<g transform="matrix( 1, 0, 0, 1, 196.25,226.45) ">
<g transform="matrix( 1, 0, 0, 1, 0,0) ">
<use xlink:href="#circ_hxs_0_Layer0_0_FILL"/>
</g>
</g>

<g transform="matrix( 1, 0, 0, 1, 98.1,170.75) ">
<g transform="matrix( 1, 0, 0, 1, 0,0) ">
<use xlink:href="#circ_hxs_0_Layer0_0_FILL"/>
</g>
</g>

<g transform="matrix( 1, 0, 0, 1, 98.1,510.45) ">
<g transform="matrix( 1, 0, 0, 1, 0,0) ">
<use xlink:href="#circ_hxs_0_Layer0_0_FILL"/>
</g>
</g>

<g transform="matrix( 1, 0, 0, 1, 98.1,396.3) ">
<g transform="matrix( 1, 0, 0, 1, 0,0) ">
<use xlink:href="#circ_hxs_0_Layer0_0_FILL"/>
</g>
</g>

<g transform="matrix( 1, 0, 0, 1, 98.1,55.7) ">
<g transform="matrix( 1, 0, 0, 1, 0,0) ">
<use xlink:href="#circ_hxs_0_Layer0_0_FILL"/>
</g>
</g>

<g transform="matrix( 1, 0, 0, 1, 392.4,341.5) ">
<g transform="matrix( 1, 0, 0, 1, 0,0) ">
<use xlink:href="#circ_hxs_0_Layer0_0_FILL"/>
</g>
</g>

<g transform="matrix( 1, 0, 0, 1, 392.4,681.2) ">
<g transform="matrix( 1, 0, 0, 1, 0,0) ">
<use xlink:href="#circ_hxs_0_Layer0_0_FILL"/>
</g>
</g>

<g transform="matrix( 1, 0, 0, 1, 392.4,567.05) ">
<g transform="matrix( 1, 0, 0, 1, 0,0) ">
<use xlink:href="#circ_hxs_0_Layer0_0_FILL"/>
</g>
</g>

<g transform="matrix( 1, 0, 0, 1, 392.4,226.45) ">
<g transform="matrix( 1, 0, 0, 1, 0,0) ">
<use xlink:href="#circ_hxs_0_Layer0_0_FILL"/>
</g>
</g>

<g transform="matrix( 1, 0, 0, 1, 294.25,170.75) ">
<g transform="matrix( 1, 0, 0, 1, 0,0) ">
<use xlink:href="#circ_hxs_0_Layer0_0_FILL"/>
</g>
</g>

<g transform="matrix( 1, 0, 0, 1, 294.25,510.45) ">
<g transform="matrix( 1, 0, 0, 1, 0,0) ">
<use xlink:href="#circ_hxs_0_Layer0_0_FILL"/>
</g>
</g>

<g transform="matrix( 1, 0, 0, 1, 294.25,396.3) ">
<g transform="matrix( 1, 0, 0, 1, 0,0) ">
<use xlink:href="#circ_hxs_0_Layer0_0_FILL"/>
</g>
</g>

<g transform="matrix( 1, 0, 0, 1, 294.25,55.7) ">
<g transform="matrix( 1, 0, 0, 1, 0,0) ">
<use xlink:href="#circ_hxs_0_Layer0_0_FILL"/>
</g>
</g>

<g transform="matrix( 1, 0, 0, 1, 0,341.5) ">
<g transform="matrix( 1, 0, 0, 1, 0,0) ">
<use xlink:href="#circ_hxs_0_Layer0_0_FILL"/>
</g>
</g>

<g transform="matrix( 1, 0, 0, 1, 0,681.2) ">
<g transform="matrix( 1, 0, 0, 1, 0,0) ">
<use xlink:href="#circ_hxs_0_Layer0_0_FILL"/>
</g>
</g>

<g transform="matrix( 1, 0, 0, 1, 0,567.05) ">
<g transform="matrix( 1, 0, 0, 1, 0,0) ">
<use xlink:href="#circ_hxs_0_Layer0_0_FILL"/>
</g>
</g>

<g transform="matrix( 1, 0, 0, 1, 0,226.45) ">
<g transform="matrix( 1, 0, 0, 1, 0,0) ">
<use xlink:href="#circ_hxs_0_Layer0_0_FILL"/>
</g>
</g>
</g>

<g transform="matrix( 1, 0, 0, 1, 0,0) ">
<use xlink:href="#Layer0_0_FILL"/>
</g>
</svg>
