
<svg xmlns="http://www.w3.org/2000/svg" version="1.1" xmlns:xlink="http://www.w3.org/1999/xlink" preserveAspectRatio="none" x="0px" y="0px" width="155px" height="155px" viewBox="0 0 155 155">
<defs>
<g id="Layer2_0_FILL">
<path fill="#145068" stroke="none" d="
M 128.7 135.2
L 128.7 105.85 103.25 91.15 77.9 87.55 77.9 135.2 103.35 149.85 128.7 135.2
M 77.2 91.15
L 51.85 91.15 26.4 105.85 26.4 135.2 51.75 149.85 77.2 135.2 77.2 91.15
M 0.7 61.25
L 0.7 90.6 26.05 105.25 51.5 90.6 51.5 61.25 26.05 46.6 0.7 61.25
M 103.6 61.25
L 103.6 90.6 129.05 105.25 154.4 90.6 154.4 61.25 129.05 46.6 103.6 61.25
M 77.2 16.65
L 51.85 2.05 26.4 16.65 26.4 46 51.75 60.7 77.2 57.05 77.2 16.65
M 128.7 46
L 128.7 16.65 103.25 2.05 77.9 16.65 77.9 60.7 103.35 60.7 128.7 46 Z"/>
</g>

<g id="Layer1_0_FILL">
<path fill="#C7D7DC" stroke="none" d="
M 121.35 94
L 121.35 60.75 92.1 44.1 62.5 44.1 33.7 60.75 33.7 94 62.2 110.3 62.2 118.5 75.15 110.55 92.7 110.55 121.35 94 Z"/>
</g>

<g id="Layer0_0_FILL">
<path fill="#FFFFFF" stroke="none" d="
M 106.6 68.2
L 89.45 58.5 65.2 58.5 48.25 68.2 48.25 87.95 66.05 97.8 82.05 97.8 89.7 102.5 89.7 97.65 106.6 87.95 106.6 68.2 Z"/>
</g>
</defs>

<g transform="matrix( 1, 0, 0, 1, 0,0) ">
<use xlink:href="#Layer2_0_FILL"/>
</g>

<g transform="matrix( 1, 0, 0, 1, 0,0) ">
<use xlink:href="#Layer1_0_FILL"/>
</g>

<g transform="matrix( 1, 0, 0, 1, 0,0) ">
<use xlink:href="#Layer0_0_FILL"/>
</g>
</svg>
