
<svg xmlns="http://www.w3.org/2000/svg" version="1.1" xmlns:xlink="http://www.w3.org/1999/xlink" preserveAspectRatio="none" x="0px" y="0px" width="325px" height="62px" viewBox="0 0 325 62">
<defs>
<g id="Layer0_0_FILL">
<path fill="#FFFFFF" stroke="none" d="
M 319 46.4
Q 319 44.65 318.85 42.95 317.75 26.75 306 15 293.05 2 274.65 2
L 49 2
Q 30.65 2 17.65 15 5.9 26.75 4.8 42.95 4.65 44.65 4.65 46.4
L 4.65 62 319 62 319 46.4
M 164.8 15.2
Q 164.8 16.65 163.75 17.6 162.7 18.65 161.3 18.65 159.85 18.65 158.85 17.6 157.85 16.65 157.85 15.2 157.85 13.7 158.85 12.75 159.85 11.7 161.3 11.7 162.7 11.7 163.75 12.75 164.8 13.7 164.8 15.2
M 104.65 33.75
Q 106.3 32.05 108.65 32.05 111 32.05 112.65 33.75 114.3 35.35 114.3 37.7 114.3 40.05 112.65 41.75 111.85 42.5 110.95 42.95 109.9 43.4 108.65 43.4 107.4 43.4 106.35 42.95 105.4 42.5 104.65 41.75 102.95 40.05 102.95 37.7 102.95 35.35 104.65 33.75
M 186.2 37.85
L 186.2 37.9
Q 186.2 38.95 185.4 39.7 184.7 40.4 183.6 40.4
L 137.85 40.4
Q 136.8 40.4 136.05 39.7 135.35 38.95 135.35 37.9
L 135.35 37.85
Q 135.35 36.8 136.05 36.05 136.8 35.3 137.85 35.3
L 183.6 35.3
Q 184.7 35.3 185.4 36.05 186.2 36.8 186.2 37.85 Z"/>

<path fill="#E5E5E5" stroke="none" d="
M 186.2 37.9
L 186.2 37.85
Q 186.2 36.8 185.4 36.05 184.7 35.3 183.6 35.3
L 137.85 35.3
Q 136.8 35.3 136.05 36.05 135.35 36.8 135.35 37.85
L 135.35 37.9
Q 135.35 38.95 136.05 39.7 136.8 40.4 137.85 40.4
L 183.6 40.4
Q 184.7 40.4 185.4 39.7 186.2 38.95 186.2 37.9 Z"/>

<path fill="#F1F1F2" stroke="none" d="
M 108.65 32.05
Q 106.3 32.05 104.65 33.75 102.95 35.35 102.95 37.7 102.95 40.05 104.65 41.75 105.4 42.5 106.35 42.95 107.4 43.4 108.65 43.4 109.9 43.4 110.95 42.95 111.85 42.5 112.65 41.75 114.3 40.05 114.3 37.7 114.3 35.35 112.65 33.75 111 32.05 108.65 32.05
M 163.75 17.6
Q 164.8 16.65 164.8 15.2 164.8 13.7 163.75 12.75 162.7 11.7 161.3 11.7 159.85 11.7 158.85 12.75 157.85 13.7 157.85 15.2 157.85 16.65 158.85 17.6 159.85 18.65 161.3 18.65 162.7 18.65 163.75 17.6 Z"/>
</g>

<path id="Layer0_0_1_STROKES" stroke="#DBDBDB" stroke-width="2" stroke-linejoin="miter" stroke-linecap="butt" stroke-miterlimit="10" fill="none" d="
M 186.2 37.9
Q 186.2 38.95 185.4 39.7 184.7 40.4 183.6 40.4
L 137.85 40.4
Q 136.8 40.4 136.05 39.7 135.35 38.95 135.35 37.9
L 135.35 37.85
Q 135.35 36.8 136.05 36.05 136.8 35.3 137.85 35.3
L 183.6 35.3
Q 184.7 35.3 185.4 36.05 186.2 36.8 186.2 37.85
L 186.2 37.9 Z"/>

<path id="Layer0_0_2_STROKES" stroke="#DBDBDB" stroke-width="1.5" stroke-linejoin="miter" stroke-linecap="butt" stroke-miterlimit="10" fill="none" d="
M 157.85 15.2
Q 157.85 13.7 158.85 12.75 159.85 11.7 161.3 11.7 162.7 11.7 163.75 12.75 164.8 13.7 164.8 15.2 164.8 16.65 163.75 17.6 162.7 18.65 161.3 18.65 159.85 18.65 158.85 17.6 157.85 16.65 157.85 15.2 Z
M 102.95 37.7
Q 102.95 35.35 104.65 33.75 106.3 32.05 108.65 32.05 111 32.05 112.65 33.75 114.3 35.35 114.3 37.7 114.3 40.05 112.65 41.75 111.85 42.5 110.95 42.95 109.9 43.4 108.65 43.4 107.4 43.4 106.35 42.95 105.4 42.5 104.65 41.75 102.95 40.05 102.95 37.7 Z"/>

<path id="Layer0_0_3_STROKES" stroke="#D0D2D3" stroke-width="2.5" stroke-linejoin="miter" stroke-linecap="butt" stroke-miterlimit="10" fill="none" d="
M 4.65 62
L 4.65 46.4
Q 4.65 44.65 4.8 42.95 5.9 26.75 17.65 15 30.65 2 49 2
L 274.65 2
Q 293.05 2 306 15 317.75 26.75 318.85 42.95 319 44.65 319 46.4
L 319 62"/>
</defs>

<g transform="matrix( 1, 0, 0, 1, 0,0) ">
<use xlink:href="#Layer0_0_FILL"/>

<use xlink:href="#Layer0_0_1_STROKES"/>

<use xlink:href="#Layer0_0_2_STROKES"/>

<use xlink:href="#Layer0_0_3_STROKES"/>
</g>
</svg>
