
<svg xmlns="http://www.w3.org/2000/svg" version="1.1" xmlns:xlink="http://www.w3.org/1999/xlink" preserveAspectRatio="none" x="0px" y="0px" width="265px" height="265px" viewBox="0 0 265 265">
<defs>
<linearGradient id="Gradient_1" gradientUnits="userSpaceOnUse" x1="98.11249999999998" y1="702.3375" x2="361.88750000000005" y2="658.1625" spreadMethod="pad">
<stop  offset="0%" stop-color="#FFFFFF" stop-opacity="0"/>

<stop  offset="100%" stop-color="#FFFFFF"/>
</linearGradient>

<linearGradient id="Gradient_2" gradientUnits="userSpaceOnUse" x1="136.79999999999995" y1="647.6" x2="956.8" y2="647.6" spreadMethod="pad">
<stop  offset="0%" stop-color="#FFFFFF" stop-opacity="0"/>

<stop  offset="100%" stop-color="#FFFFFF"/>
</linearGradient>

<filter id="Filter_1" x="-20%" y="-20%" width="140%" height="140%" color-interpolation-filters="sRGB">
<feColorMatrix in="SourceGraphic" type="matrix" values="0.31 0 0 0 0.24313725490196078 0 0.31 0 0 0.5607843137254902 0 0 0.31 0 0.6509803921568628 0 0 0 1 0" result="result1"/>
</filter>

<g id="secure_path_0_Layer1_0_FILL">
<path fill="url(#Gradient_1)" stroke="none" d="
M 815.95 174.15
L 942.1 101.3 942.1 81.85 799.1 164.4 799.1 319.8 665.7 396.8 664.55 397.5 664.55 556.55 668.65 558.9 799.1 634.2 799.1 778.6 672.95 851.4 546.8 778.55 546.8 631.6 549.85 626.3 407.55 544.15 393.5 552.6 260.8 629.25 260.75 778.6 125 856.9 123.1 858 131.5 872.6 134.6 870.85 276.45 789 277.6 788.35 277.6 788.25 277.65 638.95 407.9 563.75 529.95 634.2 529.95 788.3 531.1 788.95 672.95 870.85 815.95 788.35 815.95 788.25 815.95 631.6 817.95 628.1 819 626.3 681.4 546.8 681.4 407.2 812 331.8 815.95 331.8 815.95 329.55 815.95 329.5 817.1 328.85 819 327.75 815.95 322.4 815.95 174.15 Z"/>
</g>

<g id="nd_0_Layer0_0_FILL">
<path fill="#145068" stroke="none" d="
M 30 20.1
Q 30 16 27.1 13.1 24.2 10.2 20.1 10.2 16 10.2 13.1 13.1 10.2 16 10.2 20.1 10.2 24.2 13.1 27.1 16 30 20.1 30 24.2 30 27.1 27.1 30 24.2 30 20.1 Z"/>
</g>

<path id="secure_path_0_Layer1_0_1_STROKES" stroke="url(#Gradient_2)" stroke-width="1" stroke-linejoin="miter" stroke-linecap="square" stroke-miterlimit="3" fill="none" d="
M 672.95 0
L 672.95 91.55 799.1 164.4
M 817.1 328.85
L 942.1 401 942.1 402.35 815.95 329.55
M 942.1 556.4
L 817.95 628.1
M 125 856.9
L 0 784.75 0 629.35 134.6 551.65 134.6 402.35 0 324.65 0 169.25 134.6 91.55 269.15 169.25 403.75 91.55 403.75 0
M 665.7 396.8
L 538.35 323.3 538.35 324.65 664.55 397.5
M 403.75 91.55
L 538.35 169.25 672.95 91.55
M 538.35 169.25
L 538.35 323.3 403.75 401 403.75 402.35 538.35 324.65
M 269.15 169.25
L 269.15 323.35 269.2 323.3 403.75 401
M 269.15 323.35
L 269.15 324.65 403.75 402.35 403.75 541.95
M 134.6 402.35
L 134.6 401 269.15 323.35
M 260.8 629.25
L 134.6 556.4 134.6 551.65
M 269.15 324.65
L 134.6 402.35
M 277.6 788.25
L 403.75 861.1 403.75 862.45 531.1 788.95
M 403.75 862.45
L 403.75 950.8
M 134.6 950.8
L 134.6 870.85
M 672.95 870.85
L 672.95 950.8
M 668.65 558.9
L 549.85 626.3
M 815.95 788.25
L 942.1 861.1
M 403.75 862.45
L 276.45 789"/>
</defs>

<g transform="matrix( 0.2759857177734375, 0, 0, 0.2759857177734375, 5,0) ">
<g transform="matrix( 1, 0, 0, 1, 0,0) ">
<use xlink:href="#secure_path_0_Layer1_0_FILL"/>

<use xlink:href="#secure_path_0_Layer1_0_1_STROKES"/>
</g>

<g transform="matrix( 1, 0, 0, 1, 859.9,346.4) ">
<g transform="matrix( 1, 0, 0, 1, 0,0) ">
<use filter="url(#Filter_1)" xlink:href="#nd_0_Layer0_0_FILL"/>
</g>
</g>

<g transform="matrix( 1, 0, 0, 1, 589.9,572.65) ">
<g transform="matrix( 1, 0, 0, 1, 0,0) ">
<use filter="url(#Filter_1)" xlink:href="#nd_0_Layer0_0_FILL"/>
</g>
</g>

<g transform="matrix( 1, 0, 0, 1, 866.9,568.7) ">
<g transform="matrix( 1, 0, 0, 1, 0,0) ">
<use filter="url(#Filter_1)" xlink:href="#nd_0_Layer0_0_FILL"/>
</g>
</g>

<g transform="matrix( 1, 0, 0, 1, 863.15,807.95) ">
<g transform="matrix( 1, 0, 0, 1, 0,0) ">
<use filter="url(#Filter_1)" xlink:href="#nd_0_Layer0_0_FILL"/>
</g>
</g>

<g transform="matrix( 1, 0, 0, 1, 652.85,930.7) ">
<g transform="matrix( 1, 0, 0, 1, 0,0) ">
<use filter="url(#Filter_1)" xlink:href="#nd_0_Layer0_0_FILL"/>
</g>
</g>

<g transform="matrix( 1, 0, 0, 1, 456.8,800.15) ">
<g transform="matrix( 1, 0, 0, 1, 0,0) ">
<use filter="url(#Filter_1)" xlink:href="#nd_0_Layer0_0_FILL"/>
</g>
</g>

<g transform="matrix( 1, 0, 0, 1, 312.9,800.15) ">
<g transform="matrix( 1, 0, 0, 1, 0,0) ">
<use filter="url(#Filter_1)" xlink:href="#nd_0_Layer0_0_FILL"/>
</g>
</g>

<g transform="matrix( 1, 0, 0, 1, 383.65,450.15) ">
<g transform="matrix( 1, 0, 0, 1, 0,0) ">
<use filter="url(#Filter_1)" xlink:href="#nd_0_Layer0_0_FILL"/>
</g>
</g>

<g transform="matrix( 1, 0, 0, 1, 582.3,343.1) ">
<g transform="matrix( 1, 0, 0, 1, 0,0) ">
<use filter="url(#Filter_1)" xlink:href="#nd_0_Layer0_0_FILL"/>
</g>
</g>

<g transform="matrix( 1, 0, 0, 1, 719.9,110.2) ">
<g transform="matrix( 1, 0, 0, 1, 0,0) ">
<use filter="url(#Filter_1)" xlink:href="#nd_0_Layer0_0_FILL"/>
</g>
</g>
</g>
</svg>
