
<svg xmlns="http://www.w3.org/2000/svg" version="1.1" xmlns:xlink="http://www.w3.org/1999/xlink" preserveAspectRatio="none" x="0px" y="0px" width="200px" height="40px" viewBox="0 0 200 40">
<defs>
<linearGradient id="Gradient_1" gradientUnits="userSpaceOnUse" x1="35.9125" y1="45.0125" x2="21.3875" y2="19.887500000000003" spreadMethod="pad">
<stop  offset="0%" stop-color="#000000" stop-opacity="0"/>

<stop  offset="100%" stop-color="#000000" stop-opacity="0.4196078431372549"/>
</linearGradient>

<linearGradient id="Gradient_2" gradientUnits="userSpaceOnUse" x1="7.362499999999999" y1="25.225" x2="25.5375" y2="20.375" spreadMethod="pad">
<stop  offset="0%" stop-color="#FFFFFF" stop-opacity="0.10196078431372549"/>

<stop  offset="100%" stop-color="#FFFFFF" stop-opacity="0"/>
</linearGradient>

<linearGradient id="Gradient_3" gradientUnits="userSpaceOnUse" x1="14.212499999999999" y1="12.325" x2="34.6875" y2="24.175" spreadMethod="pad">
<stop  offset="0%" stop-color="#00CCFE"/>

<stop  offset="24.705882352941178%" stop-color="#00CCFE"/>

<stop  offset="49.80392156862745%" stop-color="#03809E"/>

<stop  offset="91.76470588235294%" stop-color="#00CCFE"/>

<stop  offset="100%" stop-color="#00CCFE"/>
</linearGradient>

<g id="Layer6_0_FILL">
<path fill="url(#Gradient_1)" stroke="none" d="
M 34.1 22.9
Q 34.45 23.15 34.55 23.55 34.7 23.95 34.45 24.3
L 34.4 24.35
Q 34.2 24.7 33.8 24.85 33.45 24.95 33.1 24.75
L 25.1 29.25
Q 25.1 29.65 24.95 30.05 24.7 30.4 24.3 30.5
L 24.2 30.55 24.15 30.55
Q 23.75 30.6 23.5 30.4 23.15 30.25 23 29.8 22.9 29.35 23.1 28.95
L 15.35 24.5
Q 15.35 24.65 15.3 24.7
L 37 46.5 66.7 46.5 34.05 13.85 34.1 22.9 Z"/>
</g>

<g id="Layer4_0_FILL">
<path fill="#000000" fill-opacity="0.03137254901960784" stroke="none" d="
M 24.45 6.85
Q 24.2 6.85 24.05 6.9
L 14.45 12.5
Q 14.3 12.6 14.15 12.8 14.05 12.95 14.05 13.15
L 14.05 24.25
Q 14.05 24.5 14.15 24.6 14.3 24.8 14.45 24.95
L 24.05 30.5
Q 24.2 30.55 24.45 30.55 24.65 30.55 24.8 30.5
L 34.4 24.9
Q 34.6 24.8 34.7 24.6 34.8 24.45 34.8 24.25
L 34.8 13.1
Q 34.8 12.95 34.7 12.75 34.6 12.6 34.4 12.5
L 24.8 6.9
Q 24.65 6.85 24.45 6.85
M 24.45 6.95
Q 24.65 6.95 24.75 7.05
L 34.35 12.6
Q 34.5 12.65 34.6 12.8 34.7 13 34.7 13.1
L 34.7 24.25
Q 34.7 24.4 34.6 24.5 34.5 24.7 34.35 24.8
L 24.75 30.35
Q 24.65 30.45 24.45 30.45 24.25 30.45 24.15 30.35
L 14.5 24.8
Q 14.35 24.75 14.3 24.55 14.2 24.45 14.2 24.25
L 14.2 13.15
Q 14.2 13 14.3 12.8 14.35 12.65 14.5 12.6
L 24.15 7.05
Q 24.25 6.95 24.45 6.95 Z"/>

<path fill="#000000" fill-opacity="0.06274509803921569" stroke="none" d="
M 24.75 7.05
Q 24.65 6.95 24.45 6.95 24.25 6.95 24.15 7.05
L 14.5 12.6
Q 14.35 12.65 14.3 12.8 14.2 13 14.2 13.15
L 14.2 24.25
Q 14.2 24.45 14.3 24.55 14.35 24.75 14.5 24.8
L 24.15 30.35
Q 24.25 30.45 24.45 30.45 24.65 30.45 24.75 30.35
L 34.35 24.8
Q 34.5 24.7 34.6 24.5 34.7 24.4 34.7 24.25
L 34.7 13.1
Q 34.7 13 34.6 12.8 34.5 12.65 34.35 12.6
L 24.75 7.05
M 24.45 7.05
Q 24.6 7.05 24.65 7.15
L 34.35 12.7
Q 34.4 12.75 34.5 12.9 34.55 13 34.55 13.1
L 34.55 24.25
Q 34.55 24.35 34.5 24.5 34.4 24.6 34.35 24.7
L 24.65 30.25
Q 24.6 30.25 24.45 30.25 24.3 30.25 24.2 30.25
L 14.55 24.7
Q 14.5 24.6 14.4 24.5 14.3 24.4 14.3 24.25
L 14.3 13.15
Q 14.3 13 14.4 12.9 14.5 12.8 14.55 12.7
L 24.2 7.15
Q 24.3 7.05 24.45 7.05 Z"/>

<path fill="#000000" fill-opacity="0.09803921568627451" stroke="none" d="
M 24.65 7.15
Q 24.6 7.05 24.45 7.05 24.3 7.05 24.2 7.15
L 14.55 12.7
Q 14.5 12.8 14.4 12.9 14.3 13 14.3 13.15
L 14.3 24.25
Q 14.3 24.4 14.4 24.5 14.5 24.6 14.55 24.7
L 24.2 30.25
Q 24.3 30.25 24.45 30.25 24.6 30.25 24.65 30.25
L 34.35 24.7
Q 34.4 24.6 34.5 24.5 34.55 24.35 34.55 24.25
L 34.55 13.1
Q 34.55 13 34.5 12.9 34.4 12.75 34.35 12.7
L 24.65 7.15
M 24.45 7.25
Q 24.55 7.25 24.65 7.3
L 34.25 12.8
Q 34.35 12.85 34.35 12.95 34.4 13 34.4 13.1
L 34.4 24.25
Q 34.4 24.35 34.35 24.45 34.35 24.5 34.25 24.55
L 24.65 30.15
Q 24.55 30.2 24.45 30.2 24.3 30.2 24.2 30.15
L 14.6 24.55
Q 14.5 24.5 14.5 24.45 14.45 24.35 14.45 24.25
L 14.45 13.15
Q 14.45 13 14.5 13 14.5 12.85 14.6 12.8
L 18.2 10.75 24.2 7.3
Q 24.3 7.25 24.45 7.25 Z"/>

<path fill="#000000" fill-opacity="0.2" stroke="none" d="
M 34.15 13
L 33.9 12.9 33.9 24 24.2 29.55 14.7 24.05 14.7 24.25
Q 14.7 24.3 14.75 24.3
L 14.75 24.35 24.35 29.9
Q 24.4 29.9 24.45 29.9
L 24.5 29.9 34.15 24.35 34.15 13 Z"/>

<path fill="url(#Gradient_2)" stroke="none" d="
M 24.5 7.5
L 24.45 7.45 24.3 7.35 24.2 7.3 18.2 10.75 14.6 12.9 14.6 13 14.6 24.05 14.7 24.05 24.2 29.55 33.9 24 33.9 12.9 24.5 7.5 Z"/>

<path fill="#000000" fill-opacity="0.16470588235294117" stroke="none" d="
M 24.45 7.45
L 24.5 7.5 33.9 12.9 34.15 13 34.15 24.35 24.5 29.9 24.45 29.9
Q 24.4 29.9 24.35 29.9
L 14.75 24.35 14.75 24.3
Q 14.7 24.3 14.7 24.25
L 14.7 24.05 14.6 24.05 14.6 13
Q 14.55 13.05 14.55 13.15
L 14.55 24.25
Q 14.55 24.3 14.6 24.4 14.65 24.45 14.7 24.5
L 24.3 30.05
Q 24.35 30.05 24.45 30.05 24.5 30.05 24.55 30.05
L 34.15 24.5
Q 34.25 24.45 34.3 24.35 34.35 24.3 34.35 24.25
L 34.35 13.1
Q 34.35 13.05 34.3 13 34.25 13 34.15 12.95
L 24.55 7.35
Q 24.5 7.3 24.45 7.3 24.35 7.3 24.3 7.35
L 24.45 7.45 Z"/>

<path fill="#000000" fill-opacity="0.12941176470588237" stroke="none" d="
M 24.65 7.3
Q 24.55 7.25 24.45 7.25 24.3 7.25 24.2 7.3
L 24.3 7.35
Q 24.35 7.3 24.45 7.3 24.5 7.3 24.55 7.35
L 34.15 12.95
Q 34.25 13 34.3 13 34.35 13.05 34.35 13.1
L 34.35 24.25
Q 34.35 24.3 34.3 24.35 34.25 24.45 34.15 24.5
L 24.55 30.05
Q 24.5 30.05 24.45 30.05 24.35 30.05 24.3 30.05
L 14.7 24.5
Q 14.65 24.45 14.6 24.4 14.55 24.3 14.55 24.25
L 14.55 13.15
Q 14.55 13.05 14.6 13
L 14.6 12.9 18.2 10.75 14.6 12.8
Q 14.5 12.85 14.5 13 14.45 13 14.45 13.15
L 14.45 24.25
Q 14.45 24.35 14.5 24.45 14.5 24.5 14.6 24.55
L 24.2 30.15
Q 24.3 30.2 24.45 30.2 24.55 30.2 24.65 30.15
L 34.25 24.55
Q 34.35 24.5 34.35 24.45 34.4 24.35 34.4 24.25
L 34.4 13.1
Q 34.4 13 34.35 12.95 34.35 12.85 34.25 12.8
L 24.65 7.3 Z"/>
</g>

<g id="Layer3_0_FILL">
<path fill="#00CCFF" stroke="none" d="
M 22.9 7.55
L 23 7.7
Q 23 7.6 22.95 7.55
L 22.9 7.55 Z"/>

<path fill="url(#Gradient_3)" stroke="none" d="
M 23.5 8.3
Q 23.15 8.1 23 7.7
L 22.9 7.55 15.2 12.1
Q 14.9 11.95 14.5 12 14.1 12.15 13.9 12.5
L 13.75 12.75
Q 13.65 13 13.75 13.3 13.85 13.7 14.3 13.9 14.45 14 14.55 14.05
L 14.65 14.1
Q 14.9 14.1 15.05 14.05 15.2 14 15.3 13.95
L 31.5 23.25 24.9 27.15 24.9 28.25 32.5 23.95
Q 32.45 23.6 32.6 23.25 32.75 23.05 33 22.9
L 15.8 13.05
Q 15.8 13 15.8 12.95
L 23.7 8.4
Q 23.55 8.35 23.5 8.3 Z"/>
</g>

<g id="Layer2_0_FILL">
<path fill="#FFFFFF" stroke="none" d="
M 34.1 11.95
Q 33.75 11.7 33.3 11.85 33.2 11.9 33.1 11.95
L 25.1 7.3
Q 25.1 7.2 25.05 7.1 24.9 6.65 24.55 6.45 24.35 6.4 24.2 6.35
L 24.05 6.35
Q 23.9 6.35 23.75 6.4 23.3 6.45 23.1 6.85 22.9 7.2 22.95 7.55 23 7.6 23 7.7 23.15 8.1 23.5 8.3 23.55 8.35 23.6 8.35
L 23.6 28.5
Q 23.35 28.65 23.15 28.9
L 23.15 28.95 23.1 28.95
Q 22.9 29.35 23 29.8 23.15 30.25 23.5 30.4 23.75 30.6 24.15 30.55
L 24.2 30.55 24.3 30.5
Q 24.7 30.4 24.95 30.05 25.1 29.65 25.1 29.25
L 33.1 24.75
Q 33.45 24.95 33.8 24.85 34.2 24.7 34.4 24.35
L 34.45 24.3
Q 34.7 23.95 34.55 23.55 34.45 23.15 34.1 22.9
L 34.05 13.8
Q 34.35 13.7 34.5 13.4 34.75 13 34.6 12.6 34.6 12.55 34.55 12.45
L 34.55 12.4 34.5 12.35
Q 34.35 12.15 34.1 11.95
M 32.55 12.8
Q 32.55 13 32.6 13.15 32.6 13.3 32.65 13.45
L 32.7 13.45
Q 32.85 13.65 33.05 13.75
L 33.05 22.85
Q 33.05 22.9 33 22.9 32.75 23.05 32.6 23.25 32.45 23.6 32.5 23.95
L 24.9 28.25 24.9 8.4 32.55 12.8 Z"/>
</g>

<g id="Layer1_0_FILL">
<path fill="#FFFFFF" stroke="none" d="
M 57.75 8.9
L 55.6 8.9 55.6 16.75
Q 54.3 15.45 52.8 15.45 50.85 15.45 49.7 16.75 48.4 18.2 48.4 20.2 48.4 22.3 49.7 23.8 50.85 25.1 52.8 25.1 54.3 25.1 55.6 23.95
L 55.6 24.95 57.75 24.95 57.75 8.9
M 53.15 17.4
Q 54.3 17.4 55.1 18.2 55.75 19.05 55.75 20.35 55.75 21.65 55.1 22.5 54.3 23.3 53.15 23.3 52 23.3 51.35 22.3 50.55 21.5 50.55 20.2 50.55 19.05 51.35 18.2 52 17.4 53.15 17.4
M 75.1 15.45
Q 73.15 15.45 71.8 16.75 70.7 18.05 70.7 20.35 70.7 22.5 71.8 23.8 73.15 25.1 75.25 25.1 75.9 25.1 76.55 24.95 77.05 24.75 77.7 24.45 78.2 24.1 78.7 23.65 79.2 23.15 79.5 22.5
L 77.7 21.5
Q 77.05 22.5 76.55 22.8 76.1 23.3 75.25 23.3 74.3 23.3 73.6 22.65 72.95 22 72.8 20.85
L 79.5 20.85 79.5 20.35
Q 79.5 18.05 78.35 16.75 77.05 15.45 75.1 15.45
M 74.45 17.4
Q 74.75 17.4 75.1 17.4 76.9 17.4 77.25 19.05
L 72.95 19.05
Q 73.15 18.7 73.3 18.4 73.45 18.05 73.8 17.9 74.1 17.55 74.45 17.4
M 64.45 15.45
Q 62.5 15.45 61.15 16.75 60.05 18.05 60.05 20.35 60.05 22.5 61.15 23.8 62.5 25.1 64.6 25.1 65.25 25.1 65.9 24.95 66.4 24.75 67.05 24.45 67.55 24.1 68.05 23.65 68.4 23.15 68.85 22.5
L 67.05 21.5
Q 66.4 22.5 65.9 22.8 65.45 23.3 64.6 23.3 63.65 23.3 63 22.65 62.3 22 62.15 20.85
L 68.7 20.85 68.7 20.35
Q 68.7 18.05 67.55 16.75 66.4 15.45 64.45 15.45
M 63.15 17.9
Q 63.45 17.55 63.8 17.4 64.1 17.4 64.45 17.4 66.1 17.4 66.6 19.05
L 62.3 19.05
Q 62.5 18.7 62.65 18.4 62.8 18.05 63.15 17.9
M 96.9 18.2
L 98.7 17.25
Q 97.7 15.45 96.05 15.45 94.75 15.45 93.95 16.25 93.1 17.05 93.1 18.2 93.1 19.05 93.6 19.7 94.1 20.2 94.9 20.5
L 96.25 21.15
Q 97.05 21.65 97.05 22.3 97.05 23.3 96.05 23.3 95.4 23.3 95.1 22.8 94.9 22.65 94.45 22
L 92.65 22.8
Q 93.6 25.1 95.9 25.1 97.2 25.1 98.2 24.3 99.2 23.3 99.2 22 99.2 21 98.7 20.35 98.05 19.85 96.4 19.05 95.25 18.55 95.25 18.05 95.25 17.75 95.4 17.55 95.6 17.4 95.9 17.4 96.4 17.4 96.9 18.2
M 89.85 16.75
Q 88.55 15.45 86.75 15.45 85.1 15.45 83.95 16.75
L 83.95 15.75 81.8 15.75 81.8 29.85 83.95 29.85 83.95 23.8
Q 85.1 25.1 86.75 25.1 88.7 25.1 89.85 23.8 91.15 22.3 91.15 20.35 91.15 18.2 89.85 16.75
M 86.4 17.4
Q 87.55 17.4 88.2 18.2 88.85 19.05 88.85 20.35 88.85 21.65 88.2 22.5 87.55 23.3 86.4 23.3 85.25 23.3 84.45 22.5 83.8 21.65 83.8 20.35 83.8 19.05 84.45 18.2 85.25 17.4 86.4 17.4
M 108.5 20
Q 108.5 17.4 110.3 17.4 110.8 17.4 111.45 17.9
L 112.45 15.95
Q 111.45 15.45 110.65 15.45 110 15.45 109.5 15.6 109.15 15.95 108.5 16.6
L 108.5 15.75 106.4 15.75 106.4 24.95 108.5 24.95 108.5 20
M 104.9 17.75
L 104.9 15.75 103.3 15.75 103.3 12.3 101.15 12.3 101.15 15.75 100.35 15.75 100.35 17.75 101.15 17.75 101.15 24.95 103.3 24.95 103.3 17.75 104.9 17.75
M 121.95 20.85
L 121.95 20.35
Q 121.95 18.05 120.8 16.75 119.65 15.45 117.55 15.45 115.55 15.45 114.4 16.75 113.1 18.05 113.1 20.35 113.1 22.5 114.4 23.8 115.75 25.1 117.7 25.1 118.5 25.1 119 24.95 119.65 24.75 120.15 24.45 120.65 24.1 121.15 23.65 121.6 23.15 122.1 22.5
L 120.3 21.5
Q 119.65 22.5 119.15 22.8 118.5 23.3 117.7 23.3 116.7 23.3 116.05 22.65 115.4 22 115.4 20.85
L 121.95 20.85
M 116.85 17.4
Q 117.2 17.4 117.7 17.4 119.35 17.4 119.8 19.05
L 115.55 19.05
Q 115.55 18.7 115.9 18.4 116.05 18.05 116.4 17.9 116.55 17.55 116.85 17.4
M 130.95 16.75
Q 129.8 15.45 128.2 15.45 126.2 15.45 125.05 16.75 123.9 18.2 123.9 20.2 123.9 22.3 125.05 23.8 126.35 25.1 128.2 25.1 129.65 25.1 130.95 23.95
L 130.95 24.95 133.1 24.95 133.1 15.75 130.95 15.75 130.95 16.75
M 128.5 17.4
Q 129.65 17.4 130.45 18.2 131.1 19.05 131.1 20.35 131.1 21.65 130.45 22.5 129.65 23.3 128.5 23.3 127.35 23.3 126.7 22.3 126.05 21.5 126.05 20.2 126.05 19.05 126.7 18.2 127.5 17.4 128.5 17.4
M 159.15 15.75
L 157 15.75 157 24.95 159.15 24.95 159.15 15.75
M 148.35 19.2
Q 148.35 15.45 145.4 15.45 143.55 15.45 142.6 16.75 141.75 15.45 140.15 15.45 139.5 15.45 139 15.6 138.5 15.95 138 16.6
L 138 15.75 135.9 15.75 135.9 24.95 138 24.95 138 20.2
Q 138 18.7 138.35 18.05 138.8 17.4 139.65 17.4 141.1 17.4 141.1 19.85
L 141.1 24.95 143.25 24.95 143.25 20.2
Q 143.25 18.7 143.55 18.05 144.05 17.4 144.9 17.4 145.55 17.4 145.85 17.9 146.2 18.4 146.2 19.7
L 146.2 24.95 148.35 24.95 148.35 19.2
M 151.75 22.95
Q 151.45 23.3 151.45 23.8 151.45 24.45 151.75 24.75 152.1 25.1 152.75 25.1 153.25 25.1 153.55 24.75 154.05 24.45 154.05 23.8 154.05 23.3 153.55 22.95 153.25 22.5 152.75 22.5 152.1 22.5 151.75 22.95
M 158.95 10.85
Q 158.65 10.5 158.15 10.5 157.5 10.5 157.15 10.85 156.7 11.35 156.7 11.85 156.7 12.5 157.15 12.8 157.5 13.3 158.15 13.3 158.65 13.3 158.95 12.8 159.45 12.5 159.45 11.85 159.45 11.35 158.95 10.85
M 166.2 15.45
Q 164.2 15.45 162.75 16.75 161.45 18.2 161.45 20.2 161.45 22.3 162.75 23.8 164.2 25.1 166.2 25.1 168.3 25.1 169.8 23.8 171.1 22.3 171.1 20.35 171.1 18.2 169.8 16.9 168.3 15.45 166.2 15.45
M 164.4 18.2
Q 165.05 17.4 166.2 17.4 167.5 17.4 168.3 18.2 168.95 19.05 168.95 20.35 168.95 21.65 168.3 22.5 167.5 23.3 166.2 23.3 165.05 23.3 164.2 22.5 163.55 21.65 163.55 20.2 163.55 19.05 164.4 18.2 Z"/>
</g>

<g id="Layer0_0_FILL">
<path fill="#FFFFFF" fill-opacity="0.4" stroke="none" d="
M 24.9 8.4
L 24.9 18.05 33.05 13 24.9 8.4 Z"/>

<path fill="#FFFFFF" fill-opacity="0.30196078431372547" stroke="none" d="
M 32.5 23.95
L 32.5 23.85
Q 32.5 23.8 32.5 23.75 32.5 23.5 32.6 23.25 32.75 23.05 33 22.9 33.05 22.9 33.05 22.85
L 33.05 13 24.9 18.05 24.9 28.25 32.5 23.95 Z"/>
</g>
</defs>

<g transform="matrix( 1, 0, 0, 1, 0,0) ">
<use xlink:href="#Layer6_0_FILL"/>
</g>

<g transform="matrix( 1, 0, 0, 1, 0,0) ">
<use xlink:href="#Layer4_0_FILL"/>
</g>

<g transform="matrix( 1, 0, 0, 1, 0,0) ">
<use xlink:href="#Layer3_0_FILL"/>
</g>

<g transform="matrix( 1, 0, 0, 1, 0,0) ">
<use xlink:href="#Layer2_0_FILL"/>
</g>

<g transform="matrix( 1, 0, 0, 1, 0,0) ">
<use xlink:href="#Layer1_0_FILL"/>
</g>

<g transform="matrix( 1, 0, 0, 1, 0,0) ">
<use xlink:href="#Layer0_0_FILL"/>
</g>
</svg>
