
<svg xmlns="http://www.w3.org/2000/svg" version="1.1" xmlns:xlink="http://www.w3.org/1999/xlink" preserveAspectRatio="none" x="0px" y="0px" width="200px" height="40px" viewBox="0 0 200 40">
<defs>
<linearGradient id="Gradient_1" gradientUnits="userSpaceOnUse" x1="35.4375" y1="50.6375" x2="19.262500000000003" y2="22.662499999999998" spreadMethod="pad">
<stop  offset="0%" stop-color="#000000" stop-opacity="0"/>

<stop  offset="100%" stop-color="#000000" stop-opacity="0.4196078431372549"/>
</linearGradient>

<linearGradient id="Gradient_2" gradientUnits="userSpaceOnUse" x1="3.6374999999999993" y1="28.599999999999998" x2="23.8625" y2="23.2" spreadMethod="pad">
<stop  offset="0%" stop-color="#FFFFFF" stop-opacity="0.10196078431372549"/>

<stop  offset="100%" stop-color="#FFFFFF" stop-opacity="0"/>
</linearGradient>

<linearGradient id="Gradient_3" gradientUnits="userSpaceOnUse" x1="11.249999999999998" y1="14.2" x2="34.05" y2="27.400000000000002" spreadMethod="pad">
<stop  offset="0%" stop-color="#00CCFE"/>

<stop  offset="24.705882352941178%" stop-color="#00CCFE"/>

<stop  offset="49.80392156862745%" stop-color="#03809E"/>

<stop  offset="91.76470588235294%" stop-color="#00CCFE"/>

<stop  offset="100%" stop-color="#00CCFE"/>
</linearGradient>

<g id="Layer6_0_FILL">
<path fill="url(#Gradient_1)" stroke="none" d="
M 12.55 27.8
Q 12.5 27.95 12.45 28
L 36.65 52.25 69.7 52.25 33.35 15.9 33.4 26
Q 33.8 26.25 33.9 26.7 34.05 27.15 33.8 27.55
L 33.75 27.6
Q 33.5 28 33.05 28.15 32.7 28.25 32.3 28.05
L 23.35 33.05
Q 23.4 33.5 23.2 33.95 22.95 34.35 22.5 34.45
L 22.4 34.5 22.3 34.5
Q 21.9 34.55 21.6 34.35 21.2 34.15 21.05 33.65 20.95 33.2 21.15 32.75
L 12.55 27.8 Z"/>
</g>

<g id="Layer4_0_FILL">
<path fill="#000000" fill-opacity="0.03137254901960784" stroke="none" d="
M 22.65 8.1
Q 22.4 8.1 22.2 8.2
L 11.5 14.4
Q 11.35 14.5 11.2 14.75 11.1 14.9 11.1 15.15
L 11.1 27.5
Q 11.1 27.75 11.2 27.9 11.35 28.1 11.5 28.25
L 22.2 34.45
Q 22.4 34.5 22.65 34.5 22.9 34.5 23.05 34.45
L 33.75 28.2
Q 33.95 28.1 34.05 27.9 34.2 27.7 34.2 27.5
L 34.2 15.1
Q 34.2 14.9 34.05 14.7 33.95 14.5 33.75 14.4
L 23.05 8.2
Q 22.9 8.1 22.65 8.1
M 22.3 8.35
Q 22.45 8.25 22.65 8.25 22.85 8.25 23 8.35
L 33.7 14.5
Q 33.85 14.6 33.95 14.75 34.05 14.95 34.05 15.1
L 34.05 27.5
Q 34.05 27.65 33.95 27.8 33.85 28 33.7 28.1
L 23 34.3
Q 22.85 34.4 22.65 34.4 22.45 34.4 22.3 34.3
L 11.6 28.1
Q 11.4 28.05 11.35 27.85 11.25 27.7 11.25 27.5
L 11.25 15.15
Q 11.25 14.95 11.35 14.75 11.4 14.6 11.6 14.5
L 22.3 8.35 Z"/>

<path fill="#000000" fill-opacity="0.06274509803921569" stroke="none" d="
M 22.65 8.25
Q 22.45 8.25 22.3 8.35
L 11.6 14.5
Q 11.4 14.6 11.35 14.75 11.25 14.95 11.25 15.15
L 11.25 27.5
Q 11.25 27.7 11.35 27.85 11.4 28.05 11.6 28.1
L 22.3 34.3
Q 22.45 34.4 22.65 34.4 22.85 34.4 23 34.3
L 33.7 28.1
Q 33.85 28 33.95 27.8 34.05 27.65 34.05 27.5
L 34.05 15.1
Q 34.05 14.95 33.95 14.75 33.85 14.6 33.7 14.5
L 23 8.35
Q 22.85 8.25 22.65 8.25
M 22.35 8.45
Q 22.5 8.35 22.65 8.35 22.8 8.35 22.9 8.45
L 33.65 14.65
Q 33.75 14.7 33.85 14.85 33.9 15 33.9 15.1
L 33.9 27.5
Q 33.9 27.6 33.85 27.8 33.75 27.9 33.65 28
L 22.9 34.2
Q 22.8 34.2 22.65 34.2 22.5 34.2 22.35 34.2
L 11.65 28
Q 11.55 27.9 11.45 27.8 11.35 27.65 11.35 27.5
L 11.35 15.15
Q 11.35 15 11.45 14.85 11.55 14.75 11.65 14.65
L 22.35 8.45 Z"/>

<path fill="#000000" fill-opacity="0.09803921568627451" stroke="none" d="
M 22.65 8.35
Q 22.5 8.35 22.35 8.45
L 11.65 14.65
Q 11.55 14.75 11.45 14.85 11.35 15 11.35 15.15
L 11.35 27.5
Q 11.35 27.65 11.45 27.8 11.55 27.9 11.65 28
L 22.35 34.2
Q 22.5 34.2 22.65 34.2 22.8 34.2 22.9 34.2
L 33.65 28
Q 33.75 27.9 33.85 27.8 33.9 27.6 33.9 27.5
L 33.9 15.1
Q 33.9 15 33.85 14.85 33.75 14.7 33.65 14.65
L 22.9 8.45
Q 22.8 8.35 22.65 8.35
M 22.4 8.6
Q 22.5 8.55 22.65 8.55 22.75 8.55 22.85 8.6
L 33.55 14.75
Q 33.65 14.8 33.7 14.9 33.75 15 33.75 15.1
L 33.75 27.5
Q 33.75 27.6 33.7 27.7 33.65 27.8 33.55 27.85
L 22.85 34.05
Q 22.75 34.1 22.65 34.1 22.5 34.1 22.4 34.05
L 11.7 27.85
Q 11.6 27.8 11.6 27.7 11.5 27.6 11.5 27.5
L 11.5 15.15
Q 11.5 15 11.6 14.95 11.6 14.8 11.7 14.75
L 22.4 8.6 Z"/>

<path fill="#000000" fill-opacity="0.12941176470588237" stroke="none" d="
M 22.65 8.55
Q 22.5 8.55 22.4 8.6
L 11.7 14.75
Q 11.6 14.8 11.6 14.95 11.5 15 11.5 15.15
L 11.5 27.5
Q 11.5 27.6 11.6 27.7 11.6 27.8 11.7 27.85
L 22.4 34.05
Q 22.5 34.1 22.65 34.1 22.75 34.1 22.85 34.05
L 33.55 27.85
Q 33.65 27.8 33.7 27.7 33.75 27.6 33.75 27.5
L 33.75 15.1
Q 33.75 15 33.7 14.9 33.65 14.8 33.55 14.75
L 22.85 8.6
Q 22.75 8.55 22.65 8.55
M 22.5 8.7
Q 22.55 8.65 22.65 8.65 22.7 8.65 22.75 8.7
L 33.45 14.9
Q 33.55 14.95 33.6 15 33.65 15.05 33.65 15.1
L 33.65 27.5
Q 33.65 27.55 33.6 27.6 33.55 27.7 33.45 27.75
L 22.75 33.95
Q 22.7 33.95 22.65 33.95 22.55 33.95 22.5 33.95
L 11.8 27.75
Q 11.75 27.7 11.7 27.65 11.65 27.55 11.65 27.5
L 11.65 15.15
Q 11.65 15.05 11.7 15
L 11.7 14.85 22.4 8.65 22.5 8.7 Z"/>

<path fill="#000000" fill-opacity="0.2" stroke="none" d="
M 33.45 15
L 33.15 14.85 33.15 27.2 22.4 33.4 11.8 27.3 11.8 27.5
Q 11.8 27.55 11.85 27.55
L 11.85 27.6 22.55 33.8
Q 22.6 33.8 22.65 33.8
L 22.7 33.8 33.45 27.6 33.45 15 Z"/>

<path fill="url(#Gradient_2)" stroke="none" d="
M 22.65 8.8
L 22.5 8.7 22.4 8.65 11.7 14.85 11.7 15 11.7 27.25 11.8 27.3 22.4 33.4 33.15 27.2 33.15 14.85 22.7 8.85 22.65 8.8 Z"/>

<path fill="#000000" fill-opacity="0.16470588235294117" stroke="none" d="
M 22.5 8.7
L 22.65 8.8 22.7 8.85 33.15 14.85 33.45 15 33.45 27.6 22.7 33.8 22.65 33.8
Q 22.6 33.8 22.55 33.8
L 11.85 27.6 11.85 27.55
Q 11.8 27.55 11.8 27.5
L 11.8 27.3 11.7 27.25 11.7 15
Q 11.65 15.05 11.65 15.15
L 11.65 27.5
Q 11.65 27.55 11.7 27.65 11.75 27.7 11.8 27.75
L 22.5 33.95
Q 22.55 33.95 22.65 33.95 22.7 33.95 22.75 33.95
L 33.45 27.75
Q 33.55 27.7 33.6 27.6 33.65 27.55 33.65 27.5
L 33.65 15.1
Q 33.65 15.05 33.6 15 33.55 14.95 33.45 14.9
L 22.75 8.7
Q 22.7 8.65 22.65 8.65 22.55 8.65 22.5 8.7 Z"/>
</g>

<g id="Layer3_0_FILL">
<path fill="#00CCFF" stroke="none" d="
M 20.95 8.9
L 21.05 9.05
Q 21.05 8.95 21 8.9
L 20.95 8.9 Z"/>

<path fill="url(#Gradient_3)" stroke="none" d="
M 21.6 9.75
Q 21.2 9.5 21.05 9.05
L 20.95 8.9 12.35 13.95
Q 12 13.8 11.6 13.85 11.15 14 10.9 14.4
L 10.75 14.7
Q 10.65 15 10.75 15.3 10.85 15.75 11.35 16 11.5 16.1 11.65 16.15
L 11.75 16.2
Q 12 16.2 12.2 16.15 12.35 16.1 12.45 16.05
L 30.5 26.4 23.15 30.7 23.15 31.95 31.6 27.15
Q 31.55 26.75 31.75 26.4 31.9 26.15 32.15 26
L 13.05 15.05
Q 13.05 15 13.05 14.9
L 21.8 9.85
Q 21.65 9.8 21.6 9.75 Z"/>
</g>

<g id="Layer2_0_FILL">
<path fill="#FFFFFF" stroke="none" d="
M 23.35 8.6
Q 23.35 8.5 23.3 8.4 23.15 7.9 22.75 7.7 22.55 7.6 22.4 7.55
L 22.2 7.55
Q 22.05 7.55 21.9 7.6 21.4 7.7 21.15 8.1 20.95 8.5 21 8.9 21.05 8.95 21.05 9.05 21.2 9.5 21.6 9.75 21.65 9.8 21.7 9.8
L 21.7 32.25
Q 21.45 32.4 21.2 32.7
L 21.2 32.75 21.15 32.75
Q 20.95 33.2 21.05 33.65 21.2 34.15 21.6 34.35 21.9 34.55 22.3 34.5
L 22.4 34.5 22.5 34.45
Q 22.95 34.35 23.2 33.95 23.4 33.5 23.35 33.05
L 32.3 28.05
Q 32.7 28.25 33.05 28.15 33.5 28 33.75 27.6
L 33.8 27.55
Q 34.05 27.15 33.9 26.7 33.8 26.25 33.4 26
L 33.35 15.85
Q 33.7 15.75 33.85 15.4 34.1 15 33.95 14.5 33.95 14.45 33.9 14.35
L 33.9 14.3 33.85 14.25
Q 33.7 14 33.4 13.8 33 13.55 32.5 13.7 32.4 13.75 32.3 13.8
L 23.35 8.6
M 31.7 15.15
Q 31.75 15.3 31.8 15.45
L 31.85 15.5
Q 32 15.7 32.2 15.8
L 32.25 25.95
Q 32.2 26 32.15 26 31.9 26.15 31.75 26.4 31.55 26.75 31.6 27.15
L 23.15 31.95 23.15 9.85 31.65 14.75
Q 31.65 14.95 31.7 15.15 Z"/>
</g>

<g id="Layer1_0_FILL">
<path fill="#FFFFFF" stroke="none" d="
M 57.75 8.9
L 55.6 8.9 55.6 16.75
Q 54.3 15.45 52.8 15.45 50.85 15.45 49.7 16.75 48.4 18.2 48.4 20.2 48.4 22.3 49.7 23.8 50.85 25.1 52.8 25.1 54.3 25.1 55.6 23.95
L 55.6 24.95 57.75 24.95 57.75 8.9
M 53.15 17.4
Q 54.3 17.4 55.1 18.2 55.75 19.05 55.75 20.35 55.75 21.65 55.1 22.5 54.3 23.3 53.15 23.3 52 23.3 51.35 22.3 50.55 21.5 50.55 20.2 50.55 19.05 51.35 18.2 52 17.4 53.15 17.4
M 75.1 15.45
Q 73.15 15.45 71.8 16.75 70.7 18.05 70.7 20.35 70.7 22.5 71.8 23.8 73.15 25.1 75.25 25.1 75.9 25.1 76.55 24.95 77.05 24.75 77.7 24.45 78.2 24.1 78.7 23.65 79.2 23.15 79.5 22.5
L 77.7 21.5
Q 77.05 22.5 76.55 22.8 76.1 23.3 75.25 23.3 74.3 23.3 73.6 22.65 72.95 22 72.8 20.85
L 79.5 20.85 79.5 20.35
Q 79.5 18.05 78.35 16.75 77.05 15.45 75.1 15.45
M 74.45 17.4
Q 74.75 17.4 75.1 17.4 76.9 17.4 77.25 19.05
L 72.95 19.05
Q 73.15 18.7 73.3 18.4 73.45 18.05 73.8 17.9 74.1 17.55 74.45 17.4
M 64.45 15.45
Q 62.5 15.45 61.15 16.75 60.05 18.05 60.05 20.35 60.05 22.5 61.15 23.8 62.5 25.1 64.6 25.1 65.25 25.1 65.9 24.95 66.4 24.75 67.05 24.45 67.55 24.1 68.05 23.65 68.4 23.15 68.85 22.5
L 67.05 21.5
Q 66.4 22.5 65.9 22.8 65.45 23.3 64.6 23.3 63.65 23.3 63 22.65 62.3 22 62.15 20.85
L 68.7 20.85 68.7 20.35
Q 68.7 18.05 67.55 16.75 66.4 15.45 64.45 15.45
M 63.15 17.9
Q 63.45 17.55 63.8 17.4 64.1 17.4 64.45 17.4 66.1 17.4 66.6 19.05
L 62.3 19.05
Q 62.5 18.7 62.65 18.4 62.8 18.05 63.15 17.9
M 96.9 18.2
L 98.7 17.25
Q 97.7 15.45 96.05 15.45 94.75 15.45 93.95 16.25 93.1 17.05 93.1 18.2 93.1 19.05 93.6 19.7 94.1 20.2 94.9 20.5
L 96.25 21.15
Q 97.05 21.65 97.05 22.3 97.05 23.3 96.05 23.3 95.4 23.3 95.1 22.8 94.9 22.65 94.45 22
L 92.65 22.8
Q 93.6 25.1 95.9 25.1 97.2 25.1 98.2 24.3 99.2 23.3 99.2 22 99.2 21 98.7 20.35 98.05 19.85 96.4 19.05 95.25 18.55 95.25 18.05 95.25 17.75 95.4 17.55 95.6 17.4 95.9 17.4 96.4 17.4 96.9 18.2
M 89.85 16.75
Q 88.55 15.45 86.75 15.45 85.1 15.45 83.95 16.75
L 83.95 15.75 81.8 15.75 81.8 29.85 83.95 29.85 83.95 23.8
Q 85.1 25.1 86.75 25.1 88.7 25.1 89.85 23.8 91.15 22.3 91.15 20.35 91.15 18.2 89.85 16.75
M 86.4 17.4
Q 87.55 17.4 88.2 18.2 88.85 19.05 88.85 20.35 88.85 21.65 88.2 22.5 87.55 23.3 86.4 23.3 85.25 23.3 84.45 22.5 83.8 21.65 83.8 20.35 83.8 19.05 84.45 18.2 85.25 17.4 86.4 17.4
M 108.5 20
Q 108.5 17.4 110.3 17.4 110.8 17.4 111.45 17.9
L 112.45 15.95
Q 111.45 15.45 110.65 15.45 110 15.45 109.5 15.6 109.15 15.95 108.5 16.6
L 108.5 15.75 106.4 15.75 106.4 24.95 108.5 24.95 108.5 20
M 104.9 17.75
L 104.9 15.75 103.3 15.75 103.3 12.3 101.15 12.3 101.15 15.75 100.35 15.75 100.35 17.75 101.15 17.75 101.15 24.95 103.3 24.95 103.3 17.75 104.9 17.75
M 121.95 20.85
L 121.95 20.35
Q 121.95 18.05 120.8 16.75 119.65 15.45 117.55 15.45 115.55 15.45 114.4 16.75 113.1 18.05 113.1 20.35 113.1 22.5 114.4 23.8 115.75 25.1 117.7 25.1 118.5 25.1 119 24.95 119.65 24.75 120.15 24.45 120.65 24.1 121.15 23.65 121.6 23.15 122.1 22.5
L 120.3 21.5
Q 119.65 22.5 119.15 22.8 118.5 23.3 117.7 23.3 116.7 23.3 116.05 22.65 115.4 22 115.4 20.85
L 121.95 20.85
M 116.85 17.4
Q 117.2 17.4 117.7 17.4 119.35 17.4 119.8 19.05
L 115.55 19.05
Q 115.55 18.7 115.9 18.4 116.05 18.05 116.4 17.9 116.55 17.55 116.85 17.4
M 130.95 16.75
Q 129.8 15.45 128.2 15.45 126.2 15.45 125.05 16.75 123.9 18.2 123.9 20.2 123.9 22.3 125.05 23.8 126.35 25.1 128.2 25.1 129.65 25.1 130.95 23.95
L 130.95 24.95 133.1 24.95 133.1 15.75 130.95 15.75 130.95 16.75
M 128.5 17.4
Q 129.65 17.4 130.45 18.2 131.1 19.05 131.1 20.35 131.1 21.65 130.45 22.5 129.65 23.3 128.5 23.3 127.35 23.3 126.7 22.3 126.05 21.5 126.05 20.2 126.05 19.05 126.7 18.2 127.5 17.4 128.5 17.4
M 159.15 15.75
L 157 15.75 157 24.95 159.15 24.95 159.15 15.75
M 148.35 19.2
Q 148.35 15.45 145.4 15.45 143.55 15.45 142.6 16.75 141.75 15.45 140.15 15.45 139.5 15.45 139 15.6 138.5 15.95 138 16.6
L 138 15.75 135.9 15.75 135.9 24.95 138 24.95 138 20.2
Q 138 18.7 138.35 18.05 138.8 17.4 139.65 17.4 141.1 17.4 141.1 19.85
L 141.1 24.95 143.25 24.95 143.25 20.2
Q 143.25 18.7 143.55 18.05 144.05 17.4 144.9 17.4 145.55 17.4 145.85 17.9 146.2 18.4 146.2 19.7
L 146.2 24.95 148.35 24.95 148.35 19.2
M 151.75 22.95
Q 151.45 23.3 151.45 23.8 151.45 24.45 151.75 24.75 152.1 25.1 152.75 25.1 153.25 25.1 153.55 24.75 154.05 24.45 154.05 23.8 154.05 23.3 153.55 22.95 153.25 22.5 152.75 22.5 152.1 22.5 151.75 22.95
M 158.95 10.85
Q 158.65 10.5 158.15 10.5 157.5 10.5 157.15 10.85 156.7 11.35 156.7 11.85 156.7 12.5 157.15 12.8 157.5 13.3 158.15 13.3 158.65 13.3 158.95 12.8 159.45 12.5 159.45 11.85 159.45 11.35 158.95 10.85
M 166.2 15.45
Q 164.2 15.45 162.75 16.75 161.45 18.2 161.45 20.2 161.45 22.3 162.75 23.8 164.2 25.1 166.2 25.1 168.3 25.1 169.8 23.8 171.1 22.3 171.1 20.35 171.1 18.2 169.8 16.9 168.3 15.45 166.2 15.45
M 164.4 18.2
Q 165.05 17.4 166.2 17.4 167.5 17.4 168.3 18.2 168.95 19.05 168.95 20.35 168.95 21.65 168.3 22.5 167.5 23.3 166.2 23.3 165.05 23.3 164.2 22.5 163.55 21.65 163.55 20.2 163.55 19.05 164.4 18.2 Z"/>
</g>

<g id="Layer0_0_FILL">
<path fill="#FFFFFF" fill-opacity="0.30196078431372547" stroke="none" d="
M 32.2 15
L 23.15 20.6 23.15 31.95 31.6 27.15 31.6 27.05
Q 31.6 27 31.6 26.95 31.6 26.65 31.75 26.4 31.9 26.15 32.15 26 32.2 26 32.25 25.95
L 32.2 15 Z"/>

<path fill="#FFFFFF" fill-opacity="0.4" stroke="none" d="
M 23.15 9.85
L 23.15 20.6 32.2 15 23.15 9.85 Z"/>
</g>
</defs>

<g transform="matrix( 1, 0, 0, 1, 0,0) ">
<use xlink:href="#Layer6_0_FILL"/>
</g>

<g transform="matrix( 1, 0, 0, 1, 0,0) ">
<use xlink:href="#Layer4_0_FILL"/>
</g>

<g transform="matrix( 1, 0, 0, 1, 0,0) ">
<use xlink:href="#Layer3_0_FILL"/>
</g>

<g transform="matrix( 1, 0, 0, 1, 0,0) ">
<use xlink:href="#Layer2_0_FILL"/>
</g>

<g transform="matrix( 1, 0, 0, 1, 0,0) ">
<use xlink:href="#Layer1_0_FILL"/>
</g>

<g transform="matrix( 1, 0, 0, 1, 0,0) ">
<use xlink:href="#Layer0_0_FILL"/>
</g>
</svg>
