
<svg xmlns="http://www.w3.org/2000/svg" version="1.1" xmlns:xlink="http://www.w3.org/1999/xlink" preserveAspectRatio="none" x="0px" y="0px" width="93px" height="70px" viewBox="0 0 93 70">
<defs>
<g id="Layer0_0_FILL">
<path fill="#FFFFFF" stroke="none" d="
M 92.9 68
L 92.9 0 0 0 0 68 92.9 68
M 91.55 1.35
L 91.55 66.65 1.35 66.65 1.35 1.35 91.55 1.35
M 29.85 53.4
L 11.25 53.4 11.25 57.25 29.85 57.25 29.85 53.4
M 17.8 30.5
Q 15.65 31.1 13.85 32.75 10.9 35.7 10.9 39.55 10.9 44 14 46.75 16.95 49.1 20.55 49.1 24.5 49.1 27.45 46.45 30.25 43.65 30.25 39.55 30.25 35.7 27.45 32.75 25.65 31.1 23.55 30.5 22.15 30.1 20.65 30.1 19.15 30.1 17.8 30.5
M 14.75 39.55
Q 14.75 36.9 16.55 35.25 18.05 33.45 20.65 33.45 23.15 33.45 24.8 35.25 26.4 37.05 26.4 39.55 26.4 42.05 24.8 43.65 23.05 45.45 20.65 45.45 18.2 45.45 16.55 43.65 14.75 42.15 14.75 39.55
M 20 11.25
L 18.2 11.25 18.2 16.05 12.95 16.05 12.95 11.25 11.1 11.25 11.1 23.45 12.95 23.45 12.95 17.8 18.2 17.8 18.2 23.45 20 23.45 20 11.25
M 24.4 22.05
Q 26.25 23.65 28.6 23.65 31.3 23.65 33.2 21.8 35.1 20 35.1 17.4 35.1 14.75 33.2 12.85 31.3 11.05 28.75 11.05 26.1 11.05 24.25 12.85 22.35 14.75 22.35 17.3 22.35 20.2 24.4 22.05
M 28.7 21.95
Q 26.85 21.95 25.5 20.6 24.15 19.35 24.15 17.3 24.15 15.35 25.5 14.1 26.8 12.75 28.7 12.75 30.65 12.75 31.9 14.1 33.2 15.45 33.2 17.4 33.2 19.25 31.9 20.6 30.55 21.95 28.7 21.95
M 59.8 30.5
L 55.75 30.5 55.75 49.1 36.3 28.75 36.3 57.25 40.25 57.25 40.25 38.55 59.8 58.85 59.8 30.5
M 47.4 13
L 50.15 13 50.15 23.45 52.05 23.45 52.05 13 54.8 13 54.8 11.25 47.4 11.25 47.4 13
M 45.5 11.25
L 43.45 11.25 40.95 15.35 38.65 11.25 36.55 11.25 39.95 17.05 36.1 23.45 38.2 23.45 40.95 18.8 43.65 23.45 45.75 23.45 42 17.05 45.5 11.25
M 62.1 23.65
Q 64.8 23.65 66.65 21.8 68.55 20 68.55 17.4 68.55 14.75 66.65 12.85 64.8 11.05 62.2 11.05 59.6 11.05 57.7 12.85 55.8 14.75 55.8 17.3 55.8 20.2 57.85 22.05 59.75 23.65 62.1 23.65
M 65.4 20.6
Q 64.05 21.95 62.15 21.95 60.35 21.95 59 20.6 57.65 19.35 57.65 17.3 57.65 15.35 59 14.1 60.25 12.75 62.15 12.75 64.1 12.75 65.4 14.1 66.65 15.45 66.65 17.4 66.65 19.25 65.4 20.6
M 81 34.35
L 81 30.5 66.25 30.5 66.25 57.25 81 57.25 81 53.4 70.25 53.4 70.25 44.6 80.55 44.6 80.55 40.75 70.25 40.75 70.25 34.35 81 34.35
M 81.55 24.2
L 81.55 11.25 79.75 11.25 79.75 19.75 70.85 10.45 70.85 23.45 72.65 23.45 72.65 14.9 81.55 24.2 Z"/>
</g>
</defs>

<g transform="matrix( 1, 0, 0, 1, 0,0) ">
<use xlink:href="#Layer0_0_FILL"/>
</g>
</svg>
