
<svg xmlns="http://www.w3.org/2000/svg" version="1.1" xmlns:xlink="http://www.w3.org/1999/xlink" preserveAspectRatio="none" x="0px" y="0px" width="155px" height="155px" viewBox="0 0 155 155">
<defs>
<g id="icon_Records_0_Layer0_0_FILL">
<path fill="#145068" stroke="none" d="
M 6.95 94.45
L 1.15 53.65 0 54.05 6.95 102.8 78.05 127.2 142.15 102.8 141 94.85 78.05 118.8 6.95 94.45
M 1.15 63.55
L 0 63.95 6.95 112.7 78.05 137.1 142.15 112.7 141 104.75 78.05 128.7 6.95 104.3 1.15 63.55
M 1.15 73.45
L 0 73.85 6.95 122.6 78.05 147 142.15 122.6 141 114.65 78.05 138.6 6.95 114.2 1.15 73.45
M 142.15 73.15
L 135.2 24.4 64.1 0 0 24.4 6.95 73.15 78.05 97.55 142.15 73.15
M 86.75 42.75
L 88.45 54.7 72.8 60.65 55.4 54.7 53.7 42.75 69.35 36.8 86.75 42.75
M 70.65 47.25
L 75 48.75 75.25 50.3 75.45 50.25 75 47.25 70.65 45.75 66.65 47.25 66.9 48.7 70.65 47.25
M 142.15 83.05
L 141 75.1 78.05 99.05 6.95 74.65 1.15 33.85 0 34.3 6.95 83.05 78.05 107.45 142.15 83.05
M 142.15 92.9
L 141 85 78.05 108.9 6.95 84.55 1.15 43.75 0 44.2 6.95 92.9 78.05 117.35 142.15 92.9 Z"/>

<path fill="#FFFFFF" stroke="none" d="
M 88.45 54.7
L 86.75 42.75 69.35 36.8 53.7 42.75 55.4 54.7 72.8 60.65 88.45 54.7
M 70.65 45.75
L 75 47.25 75.45 50.25 75.25 50.3 71.5 51.75 67.1 50.25 66.9 48.7 66.65 47.25 70.65 45.75 Z"/>
</g>
</defs>

<g transform="matrix( 1, 0, 0, 1, 6,4.95) ">
<g transform="matrix( 1, 0, 0, 1, 0,0) ">
<use xlink:href="#icon_Records_0_Layer0_0_FILL"/>
</g>
</g>
</svg>
