
<svg xmlns="http://www.w3.org/2000/svg" version="1.1" xmlns:xlink="http://www.w3.org/1999/xlink" preserveAspectRatio="none" x="0px" y="0px" width="155px" height="155px" viewBox="0 0 155 155">
<defs>
<g id="event_icn_0_Layer1_0_FILL">
<path fill="#145068" stroke="none" d="
M 84.25 72.95
L 84.25 24.3 42.1 0 0 24.3 0 72.95 42.1 97.25 84.25 72.95 Z"/>
</g>

<g id="event_icn_0_Layer0_0_FILL">
<path fill="#FFFFFF" stroke="none" d="
M 39.55 59.7
Q 39.8 60 40.25 60
L 44.35 60
Q 44.75 60 45.05 59.7 45.35 59.4 45.35 58.95
L 45.35 55.35
Q 45.35 54.95 45.05 54.65 44.75 54.35 44.35 54.35
L 40.25 54.35
Q 39.8 54.35 39.55 54.65 39.2 54.95 39.2 55.35
L 39.2 58.95
Q 39.2 59.4 39.55 59.7
M 45.55 37.7
Q 45.25 37.4 44.85 37.4
L 39.7 37.4
Q 39.3 37.4 39 37.7 38.75 38 38.75 38.45
L 39.2 50.75
Q 39.2 51.2 39.5 51.45 39.8 51.75 40.25 51.75
L 44.35 51.75
Q 44.75 51.75 45.05 51.45 45.4 51.2 45.4 50.75
L 45.85 38.45
Q 45.9 38 45.55 37.7 Z"/>
</g>
</defs>

<g transform="matrix( 1, 0, 0, 1, 0.75,0.95) ">
<g transform="matrix( 0.8992767333984375, 0, 0, 0.8992767333984375, 38.2,0) ">
<g transform="matrix( 1, 0, 0, 1, 0,0) ">
<use xlink:href="#event_icn_0_Layer1_0_FILL"/>
</g>

<g transform="matrix( 1, 0, 0, 1, 0,0) ">
<use xlink:href="#event_icn_0_Layer0_0_FILL"/>
</g>
</g>

<g transform="matrix( 0.8992767333984375, 0, 0, 0.8992767333984375, 76.65,66.55) ">
<g transform="matrix( 1, 0, 0, 1, 0,0) ">
<use xlink:href="#event_icn_0_Layer1_0_FILL"/>
</g>

<g transform="matrix( 1, 0, 0, 1, 0,0) ">
<use xlink:href="#event_icn_0_Layer0_0_FILL"/>
</g>
</g>

<g transform="matrix( 0.8992767333984375, 0, 0, 0.8992767333984375, 0,66.55) ">
<g transform="matrix( 1, 0, 0, 1, 0,0) ">
<use xlink:href="#event_icn_0_Layer1_0_FILL"/>
</g>

<g transform="matrix( 1, 0, 0, 1, 0,0) ">
<use xlink:href="#event_icn_0_Layer0_0_FILL"/>
</g>
</g>
</g>
</svg>
